<?xml version="1.0" encoding="UTF-8" standalone="no"?>
<svg width="26px" height="26px" viewBox="0 0 26 26" version="1.1" xmlns="http://www.w3.org/2000/svg" xmlns:xlink="http://www.w3.org/1999/xlink">
    <!-- Generator: Sketch 3.6.1 (26313) - http://www.bohemiancoding.com/sketch -->
    <title>settings</title>
    <desc>Created with Sketch.</desc>
    <defs></defs>
    <g id="Tablet-Lanscape" stroke="none" stroke-width="1" fill="none" fill-rule="evenodd">
        <g id="Tablet,-Start" transform="translate(-986.000000, -12.000000)" fill="#FFFFFF">
            <g id="app-header">
                <path d="M999,29.3945312 C1000.21094,29.3945312 1001.24609,28.964848 1002.10547,28.1054688 C1002.96485,27.2460895 1003.39453,26.2109436 1003.39453,25 C1003.39453,23.7890564 1002.96485,22.7539105 1002.10547,21.8945312 C1001.24609,21.035152 1000.21094,20.6054688 999,20.6054688 C997.789056,20.6054688 996.753911,21.035152 995.894531,21.8945312 C995.035152,22.7539105 994.605469,23.7890564 994.605469,25 C994.605469,26.2109436 995.035152,27.2460895 995.894531,28.1054688 C996.753911,28.964848 997.789056,29.3945312 999,29.3945312 L999,29.3945312 Z M1008.31641,26.2304688 L1010.95312,28.28125 C1011.22656,28.4765635 1011.26563,28.7499982 1011.07031,29.1015625 L1008.55078,33.4375 C1008.39453,33.7109389 1008.14063,33.7890631 1007.78906,33.671875 L1004.68359,32.4414062 C1003.86328,33.0273467 1003.16016,33.4374988 1002.57422,33.671875 L1002.10547,36.953125 C1002.02734,37.3046893 1001.83203,37.4804688 1001.51953,37.4804688 L996.480469,37.4804688 C996.167967,37.4804688 995.972657,37.3046893 995.894531,36.953125 L995.425781,33.671875 C994.68359,33.3593734 993.980472,32.9492213 993.316406,32.4414062 L990.210938,33.671875 C989.859373,33.7890631 989.60547,33.7109389 989.449219,33.4375 L986.929688,29.1015625 C986.734374,28.7499982 986.773436,28.4765635 987.046875,28.28125 L989.683594,26.2304688 C989.644531,25.9570299 989.625,25.5468777 989.625,25 C989.625,24.4531223 989.644531,24.0429701 989.683594,23.7695312 L987.046875,21.71875 C986.773436,21.5234365 986.734374,21.2500018 986.929688,20.8984375 L989.449219,16.5625 C989.60547,16.2890611 989.859373,16.2109369 990.210938,16.328125 L993.316406,17.5585938 C994.136723,16.9726533 994.839841,16.5625012 995.425781,16.328125 L995.894531,13.046875 C995.972657,12.6953107 996.167967,12.5195312 996.480469,12.5195312 L1001.51953,12.5195312 C1001.83203,12.5195312 1002.02734,12.6953107 1002.10547,13.046875 L1002.57422,16.328125 C1003.31641,16.6406266 1004.01953,17.0507787 1004.68359,17.5585938 L1007.78906,16.328125 C1008.14063,16.2109369 1008.39453,16.2890611 1008.55078,16.5625 L1011.07031,20.8984375 C1011.26563,21.2500018 1011.22656,21.5234365 1010.95312,21.71875 L1008.31641,23.7695312 C1008.35547,24.0429701 1008.375,24.4531223 1008.375,25 C1008.375,25.5468777 1008.35547,25.9570299 1008.31641,26.2304688 L1008.31641,26.2304688 Z" id="settings"></path>
            </g>
        </g>
    </g>
</svg>