<svg width="320" height="568" viewBox="0 0 320 568" xmlns="http://www.w3.org/2000/svg" xmlns:xlink="http://www.w3.org/1999/xlink"><title>Mobile, Wait for Team</title><defs><filter x="-50%" y="-50%" width="200%" height="200%" filterUnits="objectBoundingBox" id="a"><feOffset dy="1" in="SourceAlpha" result="shadowOffsetOuter1"/><feGaussianBlur stdDeviation="1.5" in="shadowOffsetOuter1" result="shadowBlurOuter1"/><feColorMatrix values="0 0 0 0 0 0 0 0 0 0 0 0 0 0 0 0 0 0 0.35 0" in="shadowBlurOuter1" result="shadowMatrixOuter1"/><feMerge><feMergeNode in="shadowMatrixOuter1"/><feMergeNode in="SourceGraphic"/></feMerge></filter><path id="b" d="M203.173 0h92.82A4.007 4.007 0 0 1 300 4.007v41.986A4 4 0 0 1 296.005 50H170.07l33.103-50z"/><filter x="-50%" y="-50%" width="200%" height="200%" filterUnits="objectBoundingBox" id="c"><feOffset dy="1" in="SourceAlpha" result="shadowOffsetOuter1"/><feGaussianBlur stdDeviation="1.5" in="shadowOffsetOuter1" result="shadowBlurOuter1"/><feColorMatrix values="0 0 0 0 0 0 0 0 0 0 0 0 0 0 0 0 0 0 0.35 0" in="shadowBlurOuter1" result="shadowMatrixOuter1"/><feMerge><feMergeNode in="shadowMatrixOuter1"/><feMergeNode in="SourceGraphic"/></feMerge></filter><path id="d" d="M203.173 0h92.82A4.007 4.007 0 0 1 300 4.007v41.986A4 4 0 0 1 296.005 50H170.07l33.103-50z"/><filter x="-50%" y="-50%" width="200%" height="200%" filterUnits="objectBoundingBox" id="e"><feOffset dy="1" in="SourceAlpha" result="shadowOffsetOuter1"/><feGaussianBlur stdDeviation="1.5" in="shadowOffsetOuter1" result="shadowBlurOuter1"/><feColorMatrix values="0 0 0 0 0 0 0 0 0 0 0 0 0 0 0 0 0 0 0.35 0" in="shadowBlurOuter1" result="shadowMatrixOuter1"/><feMerge><feMergeNode in="shadowMatrixOuter1"/><feMergeNode in="SourceGraphic"/></feMerge></filter><path id="f" d="M203.173 0h92.82A4.007 4.007 0 0 1 300 4.007v41.986A4 4 0 0 1 296.005 50H170.07l33.103-50z"/><filter x="-50%" y="-50%" width="200%" height="200%" filterUnits="objectBoundingBox" id="g"><feOffset dy="1" in="SourceAlpha" result="shadowOffsetOuter1"/><feGaussianBlur stdDeviation="1.5" in="shadowOffsetOuter1" result="shadowBlurOuter1"/><feColorMatrix values="0 0 0 0 0 0 0 0 0 0 0 0 0 0 0 0 0 0 0.35 0" in="shadowBlurOuter1" result="shadowMatrixOuter1"/><feMerge><feMergeNode in="shadowMatrixOuter1"/><feMergeNode in="SourceGraphic"/></feMerge></filter><path id="h" d="M203.173 0h92.82A4.007 4.007 0 0 1 300 4.007v41.986A4 4 0 0 1 296.005 50H170.07l33.103-50z"/><filter x="-50%" y="-50%" width="200%" height="200%" filterUnits="objectBoundingBox" id="i"><feOffset dy="1" in="SourceAlpha" result="shadowOffsetOuter1"/><feGaussianBlur stdDeviation="1.5" in="shadowOffsetOuter1" result="shadowBlurOuter1"/><feColorMatrix values="0 0 0 0 0 0 0 0 0 0 0 0 0 0 0 0 0 0 0.35 0" in="shadowBlurOuter1" result="shadowMatrixOuter1"/><feMerge><feMergeNode in="shadowMatrixOuter1"/><feMergeNode in="SourceGraphic"/></feMerge></filter><path id="j" d="M203.173 0h92.82A4.007 4.007 0 0 1 300 4.007v41.986A4 4 0 0 1 296.005 50H170.07l33.103-50z"/><filter x="-50%" y="-50%" width="200%" height="200%" filterUnits="objectBoundingBox" id="k"><feOffset dy="1" in="SourceAlpha" result="shadowOffsetOuter1"/><feGaussianBlur stdDeviation="1.5" in="shadowOffsetOuter1" result="shadowBlurOuter1"/><feColorMatrix values="0 0 0 0 0 0 0 0 0 0 0 0 0 0 0 0 0 0 0.35 0" in="shadowBlurOuter1" result="shadowMatrixOuter1"/><feMerge><feMergeNode in="shadowMatrixOuter1"/><feMergeNode in="SourceGraphic"/></feMerge></filter><path id="l" d="M203.173 0h92.82A4.007 4.007 0 0 1 300 4.007v41.986A4 4 0 0 1 296.005 50H170.07l33.103-50z"/><filter x="-50%" y="-50%" width="200%" height="200%" filterUnits="objectBoundingBox" id="m"><feOffset dy="1" in="SourceAlpha" result="shadowOffsetOuter1"/><feGaussianBlur stdDeviation="1.5" in="shadowOffsetOuter1" result="shadowBlurOuter1"/><feColorMatrix values="0 0 0 0 0 0 0 0 0 0 0 0 0 0 0 0 0 0 0.35 0" in="shadowBlurOuter1" result="shadowMatrixOuter1"/><feMerge><feMergeNode in="shadowMatrixOuter1"/><feMergeNode in="SourceGraphic"/></feMerge></filter></defs><g fill="none" fill-rule="evenodd"><g transform="translate(10 409)"><rect fill="#FFEB3B" filter="url(#a)" width="300" height="50" rx="4"/><use fill="#FFF" xlink:href="#b"/><use xlink:href="#b"/><text font-family="Roboto-Regular, Roboto" font-size="20" letter-spacing="-.5" fill="#000"><tspan x="222.627" y="32">+5:01</tspan></text><text font-family="Roboto-Regular, Roboto" font-size="20" letter-spacing="-.5" fill="#000"><tspan x="76" y="32">Jeremy</tspan></text><circle fill="#FFF" cx="28" cy="25" r="18"/><path d="M36.086 15l-7.352.08c-.51.005-1.002.15-1.424.406l-3.4.888a.617.617 0 0 0-.037.012l-1.16.387h-.002l-.005.002-.133.045c-.33.11-.63.278-.89.494l-1 .527-.685.368-.01-.015-.11.08-.336.178c-.295.16-.555.37-.768.617l-1.736 1.248a2.572 2.572 0 0 0-1.02 1.763c-.078.687.122 1.362.566 1.904l7.05 10.003A2.764 2.764 0 0 0 25.857 35a2.773 2.773 0 0 0 1.614-.565l1.954-1.384 2.206-.4 1.126-.202-.005.084 3.56.095h.043c1.476-.038 2.66-1.357 2.644-2.778l-.16-12.198c-.018-1.442-1.254-2.668-2.754-2.652zm-14.03 3.546c.076-.132.17-.252.28-.355l.823-.433.41-.137a2.524 2.524 0 0 0-.184 1.53l2.155 11.93-3.587-11.265-.007-.02c-.15-.41-.108-.866.11-1.25zm3.987-.822l.14 10.652-1.7-9.414c0-.002 0-.005-.002-.008a1.503 1.503 0 0 1 .295-1.212c.24-.31.592-.52.987-.59l.354-.065c-.05.206-.075.42-.073.637zm-5.284 1.302c-.04.37.002.75.13 1.112l3.604 11.31-5.018-9.934a1.49 1.49 0 0 1 .083-1.677l.925-.664.275-.147zm-3.294 4.305a1.49 1.49 0 0 1-.342-1.133c.047-.407.256-.773.587-1.03l.44-.315c.017.396.128.788.33 1.142l4.945 9.79-5.933-8.418a.813.813 0 0 0-.026-.035zm20.416 6.4c.01.838-.69 1.538-1.563 1.56l-7.38.08c-.885.01-1.613-.675-1.623-1.527l-.16-12.13a1.49 1.49 0 0 1 .404-1.043c.3-.323.712-.508 1.16-.52l7.378-.08c.886-.01 1.615.676 1.625 1.528l.16 12.132z" fill="#000"/></g><g transform="translate(10 351)"><rect fill="#E6E33A" filter="url(#c)" width="300" height="50" rx="4"/><use fill="#FFF" xlink:href="#d"/><use xlink:href="#d"/><text font-family="Roboto-Regular, Roboto" font-size="20" letter-spacing="-.5" fill="#000"><tspan x="222.627" y="32">+1:23</tspan></text><text font-family="Roboto-Regular, Roboto" font-size="20" letter-spacing="-.5" fill="#000"><tspan x="76" y="32">Jack</tspan></text><circle fill="#FFF" cx="28" cy="25" r="18"/><path d="M36.086 15l-7.352.08c-.51.005-1.002.15-1.424.406l-3.4.888a.617.617 0 0 0-.037.012l-1.16.387h-.002l-.005.002-.133.045c-.33.11-.63.278-.89.494l-1 .527-.685.368-.01-.015-.11.08-.336.178c-.295.16-.555.37-.768.617l-1.736 1.248a2.572 2.572 0 0 0-1.02 1.763c-.078.687.122 1.362.566 1.904l7.05 10.003A2.764 2.764 0 0 0 25.857 35a2.773 2.773 0 0 0 1.614-.565l1.954-1.384 2.206-.4 1.126-.202-.005.084 3.56.095h.043c1.476-.038 2.66-1.357 2.644-2.778l-.16-12.198c-.018-1.442-1.254-2.668-2.754-2.652zm-14.03 3.546c.076-.132.17-.252.28-.355l.823-.433.41-.137a2.524 2.524 0 0 0-.184 1.53l2.155 11.93-3.587-11.265-.007-.02c-.15-.41-.108-.866.11-1.25zm3.987-.822l.14 10.652-1.7-9.414c0-.002 0-.005-.002-.008a1.503 1.503 0 0 1 .295-1.212c.24-.31.592-.52.987-.59l.354-.065c-.05.206-.075.42-.073.637zm-5.284 1.302c-.04.37.002.75.13 1.112l3.604 11.31-5.018-9.934a1.49 1.49 0 0 1 .083-1.677l.925-.664.275-.147zm-3.294 4.305a1.49 1.49 0 0 1-.342-1.133c.047-.407.256-.773.587-1.03l.44-.315c.017.396.128.788.33 1.142l4.945 9.79-5.933-8.418a.813.813 0 0 0-.026-.035zm20.416 6.4c.01.838-.69 1.538-1.563 1.56l-7.38.08c-.885.01-1.613-.675-1.623-1.527l-.16-12.13a1.49 1.49 0 0 1 .404-1.043c.3-.323.712-.508 1.16-.52l7.378-.08c.886-.01 1.615.676 1.625 1.528l.16 12.132z" fill="#000"/></g><g transform="translate(10 293)"><rect fill="#CDDC39" filter="url(#e)" width="300" height="50" rx="4"/><use fill="#FFF" xlink:href="#f"/><use xlink:href="#f"/><text font-family="Roboto-Regular, Roboto" font-size="20" letter-spacing="-.5" fill="#000"><tspan x="222.627" y="32">+0:54</tspan></text><text font-family="Roboto-Regular, Roboto" font-size="20" letter-spacing="-.5" fill="#000"><tspan x="76" y="32">Valery</tspan></text><circle fill="#FFF" cx="28" cy="25" r="18"/><path d="M36.086 15l-7.352.08c-.51.005-1.002.15-1.424.406l-3.4.888a.617.617 0 0 0-.037.012l-1.16.387h-.002l-.005.002-.133.045c-.33.11-.63.278-.89.494l-1 .527-.685.368-.01-.015-.11.08-.336.178c-.295.16-.555.37-.768.617l-1.736 1.248a2.572 2.572 0 0 0-1.02 1.763c-.078.687.122 1.362.566 1.904l7.05 10.003A2.764 2.764 0 0 0 25.857 35a2.773 2.773 0 0 0 1.614-.565l1.954-1.384 2.206-.4 1.126-.202-.005.084 3.56.095h.043c1.476-.038 2.66-1.357 2.644-2.778l-.16-12.198c-.018-1.442-1.254-2.668-2.754-2.652zm-14.03 3.546c.076-.132.17-.252.28-.355l.823-.433.41-.137a2.524 2.524 0 0 0-.184 1.53l2.155 11.93-3.587-11.265-.007-.02c-.15-.41-.108-.866.11-1.25zm3.987-.822l.14 10.652-1.7-9.414c0-.002 0-.005-.002-.008a1.503 1.503 0 0 1 .295-1.212c.24-.31.592-.52.987-.59l.354-.065c-.05.206-.075.42-.073.637zm-5.284 1.302c-.04.37.002.75.13 1.112l3.604 11.31-5.018-9.934a1.49 1.49 0 0 1 .083-1.677l.925-.664.275-.147zm-3.294 4.305a1.49 1.49 0 0 1-.342-1.133c.047-.407.256-.773.587-1.03l.44-.315c.017.396.128.788.33 1.142l4.945 9.79-5.933-8.418a.813.813 0 0 0-.026-.035zm20.416 6.4c.01.838-.69 1.538-1.563 1.56l-7.38.08c-.885.01-1.613-.675-1.623-1.527l-.16-12.13a1.49 1.49 0 0 1 .404-1.043c.3-.323.712-.508 1.16-.52l7.378-.08c.886-.01 1.615.676 1.625 1.528l.16 12.132z" fill="#000"/></g><g transform="translate(10 235)"><rect fill="#ACCF41" filter="url(#g)" width="300" height="50" rx="4"/><use fill="#FFF" xlink:href="#h"/><use xlink:href="#h"/><text font-family="Roboto-Regular, Roboto" font-size="20" letter-spacing="-.5" fill="#000"><tspan x="222.627" y="32">+0:23</tspan></text><text font-family="Roboto-Regular, Roboto" font-size="20" letter-spacing="-.5" fill="#000"><tspan x="76" y="32">Eugene</tspan></text><circle fill="#FFF" cx="28" cy="25" r="18"/><path d="M36.086 15l-7.352.08c-.51.005-1.002.15-1.424.406l-3.4.888a.617.617 0 0 0-.037.012l-1.16.387h-.002l-.005.002-.133.045c-.33.11-.63.278-.89.494l-1 .527-.685.368-.01-.015-.11.08-.336.178c-.295.16-.555.37-.768.617l-1.736 1.248a2.572 2.572 0 0 0-1.02 1.763c-.078.687.122 1.362.566 1.904l7.05 10.003A2.764 2.764 0 0 0 25.857 35a2.773 2.773 0 0 0 1.614-.565l1.954-1.384 2.206-.4 1.126-.202-.005.084 3.56.095h.043c1.476-.038 2.66-1.357 2.644-2.778l-.16-12.198c-.018-1.442-1.254-2.668-2.754-2.652zm-14.03 3.546c.076-.132.17-.252.28-.355l.823-.433.41-.137a2.524 2.524 0 0 0-.184 1.53l2.155 11.93-3.587-11.265-.007-.02c-.15-.41-.108-.866.11-1.25zm3.987-.822l.14 10.652-1.7-9.414c0-.002 0-.005-.002-.008a1.503 1.503 0 0 1 .295-1.212c.24-.31.592-.52.987-.59l.354-.065c-.05.206-.075.42-.073.637zm-5.284 1.302c-.04.37.002.75.13 1.112l3.604 11.31-5.018-9.934a1.49 1.49 0 0 1 .083-1.677l.925-.664.275-.147zm-3.294 4.305a1.49 1.49 0 0 1-.342-1.133c.047-.407.256-.773.587-1.03l.44-.315c.017.396.128.788.33 1.142l4.945 9.79-5.933-8.418a.813.813 0 0 0-.026-.035zm20.416 6.4c.01.838-.69 1.538-1.563 1.56l-7.38.08c-.885.01-1.613-.675-1.623-1.527l-.16-12.13a1.49 1.49 0 0 1 .404-1.043c.3-.323.712-.508 1.16-.52l7.378-.08c.886-.01 1.615.676 1.625 1.528l.16 12.132z" fill="#000"/></g><g transform="translate(10 177)"><rect fill="#8BC34A" filter="url(#i)" width="300" height="50" rx="4"/><use fill="#FFF" xlink:href="#j"/><use xlink:href="#j"/><text font-family="Roboto-Regular, Roboto" font-size="20" letter-spacing="-.5" fill="#000"><tspan x="222.627" y="32">+0:15</tspan></text><text font-family="Roboto-Regular, Roboto" font-size="20" letter-spacing="-.5" fill="#000"><tspan x="76" y="32">Ann</tspan></text><circle fill="#FFF" cx="28" cy="25" r="18"/><path d="M36.086 15l-7.352.08c-.51.005-1.002.15-1.424.406l-3.4.888a.617.617 0 0 0-.037.012l-1.16.387h-.002l-.005.002-.133.045c-.33.11-.63.278-.89.494l-1 .527-.685.368-.01-.015-.11.08-.336.178c-.295.16-.555.37-.768.617l-1.736 1.248a2.572 2.572 0 0 0-1.02 1.763c-.078.687.122 1.362.566 1.904l7.05 10.003A2.764 2.764 0 0 0 25.857 35a2.773 2.773 0 0 0 1.614-.565l1.954-1.384 2.206-.4 1.126-.202-.005.084 3.56.095h.043c1.476-.038 2.66-1.357 2.644-2.778l-.16-12.198c-.018-1.442-1.254-2.668-2.754-2.652zm-14.03 3.546c.076-.132.17-.252.28-.355l.823-.433.41-.137a2.524 2.524 0 0 0-.184 1.53l2.155 11.93-3.587-11.265-.007-.02c-.15-.41-.108-.866.11-1.25zm3.987-.822l.14 10.652-1.7-9.414c0-.002 0-.005-.002-.008a1.503 1.503 0 0 1 .295-1.212c.24-.31.592-.52.987-.59l.354-.065c-.05.206-.075.42-.073.637zm-5.284 1.302c-.04.37.002.75.13 1.112l3.604 11.31-5.018-9.934a1.49 1.49 0 0 1 .083-1.677l.925-.664.275-.147zm-3.294 4.305a1.49 1.49 0 0 1-.342-1.133c.047-.407.256-.773.587-1.03l.44-.315c.017.396.128.788.33 1.142l4.945 9.79-5.933-8.418a.813.813 0 0 0-.026-.035zm20.416 6.4c.01.838-.69 1.538-1.563 1.56l-7.38.08c-.885.01-1.613-.675-1.623-1.527l-.16-12.13a1.49 1.49 0 0 1 .404-1.043c.3-.323.712-.508 1.16-.52l7.378-.08c.886-.01 1.615.676 1.625 1.528l.16 12.132z" fill="#000"/></g><g transform="translate(10 119)"><rect fill="#4CAF50" filter="url(#k)" width="300" height="50" rx="4"/><use fill="#FFF" xlink:href="#l"/><use xlink:href="#l"/><text font-family="Roboto-Regular, Roboto" font-size="20" letter-spacing="-.5" fill="#000"><tspan x="237" y="32">first</tspan></text><text font-family="Roboto-Regular, Roboto" font-size="20" letter-spacing="-.5" fill="#000"><tspan x="76" y="32">Kate</tspan></text><circle fill="#FFF" cx="28" cy="25" r="18"/><path d="M36.086 15l-7.352.08c-.51.005-1.002.15-1.424.406l-3.4.888a.617.617 0 0 0-.037.012l-1.16.387h-.002l-.005.002-.133.045c-.33.11-.63.278-.89.494l-1 .527-.685.368-.01-.015-.11.08-.336.178c-.295.16-.555.37-.768.617l-1.736 1.248a2.572 2.572 0 0 0-1.02 1.763c-.078.687.122 1.362.566 1.904l7.05 10.003A2.764 2.764 0 0 0 25.857 35a2.773 2.773 0 0 0 1.614-.565l1.954-1.384 2.206-.4 1.126-.202-.005.084 3.56.095h.043c1.476-.038 2.66-1.357 2.644-2.778l-.16-12.198c-.018-1.442-1.254-2.668-2.754-2.652zm-14.03 3.546c.076-.132.17-.252.28-.355l.823-.433.41-.137a2.524 2.524 0 0 0-.184 1.53l2.155 11.93-3.587-11.265-.007-.02c-.15-.41-.108-.866.11-1.25zm3.987-.822l.14 10.652-1.7-9.414c0-.002 0-.005-.002-.008a1.503 1.503 0 0 1 .295-1.212c.24-.31.592-.52.987-.59l.354-.065c-.05.206-.075.42-.073.637zm-5.284 1.302c-.04.37.002.75.13 1.112l3.604 11.31-5.018-9.934a1.49 1.49 0 0 1 .083-1.677l.925-.664.275-.147zm-3.294 4.305a1.49 1.49 0 0 1-.342-1.133c.047-.407.256-.773.587-1.03l.44-.315c.017.396.128.788.33 1.142l4.945 9.79-5.933-8.418a.813.813 0 0 0-.026-.035zm20.416 6.4c.01.838-.69 1.538-1.563 1.56l-7.38.08c-.885.01-1.613-.675-1.623-1.527l-.16-12.13a1.49 1.49 0 0 1 .404-1.043c.3-.323.712-.508 1.16-.52l7.378-.08c.886-.01 1.615.676 1.625 1.528l.16 12.132z" fill="#000"/></g><g><path fill="#FFF" filter="url(#m)" d="M0 0h320v60H0z" transform="translate(0 49)"/><text font-family="Roboto-Medium, Roboto" font-size="24" font-weight="400" letter-spacing="-.6" fill="#000" transform="translate(0 49)"><tspan x="16.857" y="38">Team members in the room:</tspan></text></g><g><path fill="#9C27B0" d="M0 0h320v50H0z"/><text font-family="ArialMT, Arial" font-size="20" letter-spacing="-.5" fill="#FFF"><tspan x="20" y="32">Scrum Poker</tspan></text><text font-family="MaterialIcons-Regular, Material Icons" font-size="30" fill="#FFF"><tspan x="280" y="40"></tspan></text></g><text font-family="Roboto-Regular, Roboto" font-size="16" letter-spacing="-.4" fill="#000"><tspan x="20" y="524">Wait till Scrum Master starts poker.</tspan></text></g></svg>