<svg width="320" height="568" viewBox="0 0 320 568" xmlns="http://www.w3.org/2000/svg" xmlns:xlink="http://www.w3.org/1999/xlink"><title>Mobile, Deck Cards</title><defs><filter x="-50%" y="-50%" width="200%" height="200%" filterUnits="objectBoundingBox" id="a"><feOffset dy="1" in="SourceAlpha" result="shadowOffsetOuter1"/><feGaussianBlur stdDeviation="1.5" in="shadowOffsetOuter1" result="shadowBlurOuter1"/><feColorMatrix values="0 0 0 0 0 0 0 0 0 0 0 0 0 0 0 0 0 0 0.35 0" in="shadowBlurOuter1" result="shadowMatrixOuter1"/><feMerge><feMergeNode in="shadowMatrixOuter1"/><feMergeNode in="SourceGraphic"/></feMerge></filter><path id="b" d="M155.96 0h140.037A4.005 4.005 0 0 1 300 4.007v41.986A3.996 3.996 0 0 1 296.01 50H120l35.96-50z"/><filter x="-50%" y="-50%" width="200%" height="200%" filterUnits="objectBoundingBox" id="c"><feOffset dy="2" in="SourceAlpha" result="shadowOffsetOuter1"/><feGaussianBlur stdDeviation="2.5" in="shadowOffsetOuter1" result="shadowBlurOuter1"/><feColorMatrix values="0 0 0 0 0 0 0 0 0 0 0 0 0 0 0 0 0 0 0.14 0" in="shadowBlurOuter1" result="shadowMatrixOuter1"/><feMerge><feMergeNode in="shadowMatrixOuter1"/><feMergeNode in="SourceGraphic"/></feMerge></filter><filter x="-50%" y="-50%" width="200%" height="200%" filterUnits="objectBoundingBox" id="d"><feOffset dy="2" in="SourceAlpha" result="shadowOffsetOuter1"/><feGaussianBlur stdDeviation="2.5" in="shadowOffsetOuter1" result="shadowBlurOuter1"/><feColorMatrix values="0 0 0 0 0 0 0 0 0 0 0 0 0 0 0 0 0 0 0.14 0" in="shadowBlurOuter1" result="shadowMatrixOuter1"/><feMerge><feMergeNode in="shadowMatrixOuter1"/><feMergeNode in="SourceGraphic"/></feMerge></filter><filter x="-50%" y="-50%" width="200%" height="200%" filterUnits="objectBoundingBox" id="e"><feOffset dy="1" in="SourceAlpha" result="shadowOffsetOuter1"/><feGaussianBlur stdDeviation="1.5" in="shadowOffsetOuter1" result="shadowBlurOuter1"/><feColorMatrix values="0 0 0 0 0 0 0 0 0 0 0 0 0 0 0 0 0 0 0.35 0" in="shadowBlurOuter1" result="shadowMatrixOuter1"/><feMerge><feMergeNode in="shadowMatrixOuter1"/><feMergeNode in="SourceGraphic"/></feMerge></filter><path id="f" d="M155.96 0h140.037A4.005 4.005 0 0 1 300 4.007v41.986A3.996 3.996 0 0 1 296.01 50H120l35.96-50z"/><filter x="-50%" y="-50%" width="200%" height="200%" filterUnits="objectBoundingBox" id="g"><feOffset dy="2" in="SourceAlpha" result="shadowOffsetOuter1"/><feGaussianBlur stdDeviation="2.5" in="shadowOffsetOuter1" result="shadowBlurOuter1"/><feColorMatrix values="0 0 0 0 0 0 0 0 0 0 0 0 0 0 0 0 0 0 0.14 0" in="shadowBlurOuter1" result="shadowMatrixOuter1"/><feMerge><feMergeNode in="shadowMatrixOuter1"/><feMergeNode in="SourceGraphic"/></feMerge></filter><filter x="-50%" y="-50%" width="200%" height="200%" filterUnits="objectBoundingBox" id="h"><feOffset dy="2" in="SourceAlpha" result="shadowOffsetOuter1"/><feGaussianBlur stdDeviation="2.5" in="shadowOffsetOuter1" result="shadowBlurOuter1"/><feColorMatrix values="0 0 0 0 0 0 0 0 0 0 0 0 0 0 0 0 0 0 0.14 0" in="shadowBlurOuter1" result="shadowMatrixOuter1"/><feMerge><feMergeNode in="shadowMatrixOuter1"/><feMergeNode in="SourceGraphic"/></feMerge></filter><filter x="-50%" y="-50%" width="200%" height="200%" filterUnits="objectBoundingBox" id="i"><feOffset dy="1" in="SourceAlpha" result="shadowOffsetOuter1"/><feGaussianBlur stdDeviation="1.5" in="shadowOffsetOuter1" result="shadowBlurOuter1"/><feColorMatrix values="0 0 0 0 0 0 0 0 0 0 0 0 0 0 0 0 0 0 0.35 0" in="shadowBlurOuter1" result="shadowMatrixOuter1"/><feMerge><feMergeNode in="shadowMatrixOuter1"/><feMergeNode in="SourceGraphic"/></feMerge></filter><path id="j" d="M155.96 0h140.037A4.005 4.005 0 0 1 300 4.007v41.986A3.996 3.996 0 0 1 296.01 50H120l35.96-50z"/><filter x="-50%" y="-50%" width="200%" height="200%" filterUnits="objectBoundingBox" id="k"><feOffset dy="1" in="SourceAlpha" result="shadowOffsetOuter1"/><feGaussianBlur stdDeviation="1.5" in="shadowOffsetOuter1" result="shadowBlurOuter1"/><feColorMatrix values="0 0 0 0 0 0 0 0 0 0 0 0 0 0 0 0 0 0 0.35 0" in="shadowBlurOuter1" result="shadowMatrixOuter1"/><feMerge><feMergeNode in="shadowMatrixOuter1"/><feMergeNode in="SourceGraphic"/></feMerge></filter><path id="l" d="M155.96 0h140.037A4.005 4.005 0 0 1 300 4.007v41.986A3.996 3.996 0 0 1 296.01 50H120l35.96-50z"/><filter x="-50%" y="-50%" width="200%" height="200%" filterUnits="objectBoundingBox" id="m"><feOffset dy="1" in="SourceAlpha" result="shadowOffsetOuter1"/><feGaussianBlur stdDeviation="1.5" in="shadowOffsetOuter1" result="shadowBlurOuter1"/><feColorMatrix values="0 0 0 0 0 0 0 0 0 0 0 0 0 0 0 0 0 0 0.35 0" in="shadowBlurOuter1" result="shadowMatrixOuter1"/><feMerge><feMergeNode in="shadowMatrixOuter1"/><feMergeNode in="SourceGraphic"/></feMerge></filter><path id="n" d="M155.96 0h140.037A4.005 4.005 0 0 1 300 4.007v41.986A3.996 3.996 0 0 1 296.01 50H120l35.96-50z"/><filter x="-50%" y="-50%" width="200%" height="200%" filterUnits="objectBoundingBox" id="o"><feOffset dy="1" in="SourceAlpha" result="shadowOffsetOuter1"/><feGaussianBlur stdDeviation="1.5" in="shadowOffsetOuter1" result="shadowBlurOuter1"/><feColorMatrix values="0 0 0 0 0 0 0 0 0 0 0 0 0 0 0 0 0 0 0.35 0" in="shadowBlurOuter1" result="shadowMatrixOuter1"/><feMerge><feMergeNode in="shadowMatrixOuter1"/><feMergeNode in="SourceGraphic"/></feMerge></filter><path id="p" d="M155.96 0h140.037A4.005 4.005 0 0 1 300 4.007v41.986A3.996 3.996 0 0 1 296.01 50H120l35.96-50z"/><filter x="-50%" y="-50%" width="200%" height="200%" filterUnits="objectBoundingBox" id="q"><feOffset dy="1" in="SourceAlpha" result="shadowOffsetOuter1"/><feGaussianBlur stdDeviation="1.5" in="shadowOffsetOuter1" result="shadowBlurOuter1"/><feColorMatrix values="0 0 0 0 0 0 0 0 0 0 0 0 0 0 0 0 0 0 0.35 0" in="shadowBlurOuter1" result="shadowMatrixOuter1"/><feMerge><feMergeNode in="shadowMatrixOuter1"/><feMergeNode in="SourceGraphic"/></feMerge></filter><path id="r" d="M155.96 0h140.037A4.005 4.005 0 0 1 300 4.007v41.986A3.996 3.996 0 0 1 296.01 50H120l35.96-50z"/><filter x="-50%" y="-50%" width="200%" height="200%" filterUnits="objectBoundingBox" id="s"><feOffset dy="1" in="SourceAlpha" result="shadowOffsetOuter1"/><feGaussianBlur stdDeviation="1.5" in="shadowOffsetOuter1" result="shadowBlurOuter1"/><feColorMatrix values="0 0 0 0 0 0 0 0 0 0 0 0 0 0 0 0 0 0 0.35 0" in="shadowBlurOuter1" result="shadowMatrixOuter1"/><feMerge><feMergeNode in="shadowMatrixOuter1"/><feMergeNode in="SourceGraphic"/></feMerge></filter><path id="t" d="M155.96 0h140.037A4.005 4.005 0 0 1 300 4.007v41.986A3.996 3.996 0 0 1 296.01 50H120l35.96-50z"/><filter x="-50%" y="-50%" width="200%" height="200%" filterUnits="objectBoundingBox" id="u"><feOffset dy="1" in="SourceAlpha" result="shadowOffsetOuter1"/><feGaussianBlur stdDeviation="1.5" in="shadowOffsetOuter1" result="shadowBlurOuter1"/><feColorMatrix values="0 0 0 0 0 0 0 0 0 0 0 0 0 0 0 0 0 0 0.35 0" in="shadowBlurOuter1" result="shadowMatrixOuter1"/><feMerge><feMergeNode in="shadowMatrixOuter1"/><feMergeNode in="SourceGraphic"/></feMerge></filter><path id="v" d="M155.96 0h140.037A4.005 4.005 0 0 1 300 4.007v41.986A3.996 3.996 0 0 1 296.01 50H120l35.96-50z"/></defs><g fill="none" fill-rule="evenodd"><g transform="translate(10 539)"><rect fill="#795548" filter="url(#a)" width="300" height="50" rx="4"/><use fill="#FFF" xlink:href="#b"/><use xlink:href="#b"/><g transform="translate(246 15)"><rect fill="#F4F3F3" filter="url(#c)" x="3.714" y="3.818" width="35.286" height="13.364" rx="7.5"/><ellipse fill="#FFF" filter="url(#d)" cx="10.214" cy="10.5" rx="10.214" ry="10.5"/></g><circle fill="#FFF" cx="28" cy="25" r="18"/><g fill="#010101"><path d="M35.616 18.767c0-.855-.513-2.053-2.957-2.91-1.578-.553-3.656-.857-5.852-.857s-4.274.304-5.85.857c-2.445.856-2.958 2.055-2.958 2.91 0 3.645.12 6.543.7 8.834.566 2.226 1.553 3.927 3.3 5.69 1.094 1.102 2.756 1.685 4.808 1.685 2.05 0 3.713-.584 4.807-1.686 1.33-1.343 2.23-2.712 2.916-4.44.01-.024.032-.078.208-.137.272-.09.668-.1.943-.1.17 0 .342.003.51.007.167.005.338.01.502.01 1.166 0 2.264-.525 3.092-1.477A5.047 5.047 0 0 0 41 23.886c0-1.247-.456-2.373-1.286-3.17-.78-.75-1.853-1.164-3.023-1.164-.423 0-.78.066-1.078.145.003-.296.004-.606.004-.93zm4.426 5.12c0 .934-.35 1.874-.963 2.578-.644.74-1.492 1.15-2.388 1.15-.313 0-.662-.02-1.01-.02-.87 0-1.736.11-2.034.86-.607 1.53-1.41 2.805-2.694 4.098-.896.904-2.308 1.407-4.147 1.407-1.838 0-3.25-.503-4.147-1.407-3.154-3.182-3.702-6.132-3.702-13.786 0-1.52 3.515-2.75 7.85-2.75 4.335 0 7.85 1.232 7.85 2.75 0 .772-.006 1.494-.02 2.175a.87.87 0 0 0 .14.01c.494 0 1.01-.383 1.914-.383.93 0 1.775.32 2.38.9.625.6.97 1.46.97 2.416z"/><path d="M34.553 23.24c-.04.637-.302 2.588-.367 3.145.27-.17.646-.215 1.036-.215.448 0 .916.06 1.264.06.075 0 .144-.002.206-.01 1.1-.117 2.037-1.09 2.037-2.334 0-1.17-.8-1.924-2.038-1.924-1.024 0-1.768.556-2.14 1.277zm1.933 1.974c-.132 0-.307-.013-.49-.025-.212-.016-.448-.032-.688-.036.07-.573.143-1.173.18-1.584.176-.25.538-.592 1.204-.592.492 0 1.078.157 1.078.908 0 .75-.597 1.262-1.174 1.324a1.15 1.15 0 0 1-.11.004zM32.437 17.968a.233.233 0 0 0-.325.103.262.262 0 0 0 .098.345c.32.183.502.38.502.538 0 .142-.15.34-.515.546-.887-.69-2.965-1.173-5.39-1.173-2.423 0-4.5.483-5.388 1.172-.368-.208-.516-.405-.516-.547 0-.16.184-.356.504-.54a.262.262 0 0 0 .098-.343.233.233 0 0 0-.325-.104c-.5.287-.755.62-.755.987 0 1.3 3.21 1.98 6.383 1.98 3.172 0 6.382-.68 6.382-1.98 0-.368-.253-.7-.753-.985z"/></g></g><g transform="translate(10 481)"><rect fill="#2196F3" filter="url(#e)" width="300" height="50" rx="4"/><use fill="#FFF" xlink:href="#f"/><use xlink:href="#f"/><g transform="translate(246 15)"><rect fill="#607D8B" filter="url(#g)" y="3.818" width="35.286" height="13.364" rx="7.5"/><ellipse fill="#FFF" filter="url(#h)" cx="28.786" cy="10.5" rx="10.214" ry="10.5"/></g><circle fill="#FFF" cx="28" cy="25" r="18"/><text font-family="Roboto-Regular, Roboto" font-size="20" letter-spacing="-.5" fill="#000"><tspan x="23.028" y="32">?</tspan></text></g><g transform="translate(10 423)"><rect fill="#F44336" filter="url(#i)" width="300" height="50" rx="4"/><path d="M10 16h2v2h-2v-2zm4 0h2v2h-2v-2zm-4 4h2v2h-2v-2zm4 0h2v2h-2v-2zm-4 4h2v2h-2v-2zm4 0h2v2h-2v-2zm-4 4h2v2h-2v-2zm4 0h2v2h-2v-2zm-4 4h2v2h-2v-2zm4 0h2v2h-2v-2z" fill="#000"/><use fill="#FFF" xlink:href="#j"/><use xlink:href="#j"/><circle fill="#FFF" cx="48" cy="25" r="18"/><text font-family="Roboto-Regular, Roboto" font-size="20" letter-spacing="-.5" fill="#000"><tspan x="31.404" y="32">100</tspan></text><text font-family="MaterialIcons-Regular, Material Icons" font-size="30" fill="#607D8B"><tspan x="260" y="40"></tspan></text><text font-family="MaterialIcons-Regular, Material Icons" font-size="30" fill="#607D8B"><tspan x="220" y="40"></tspan></text></g><g transform="translate(10 365)"><rect fill="#FFEB3B" filter="url(#k)" width="300" height="50" rx="4"/><path d="M10 16h2v2h-2v-2zm4 0h2v2h-2v-2zm-4 4h2v2h-2v-2zm4 0h2v2h-2v-2zm-4 4h2v2h-2v-2zm4 0h2v2h-2v-2zm-4 4h2v2h-2v-2zm4 0h2v2h-2v-2zm-4 4h2v2h-2v-2zm4 0h2v2h-2v-2z" fill="#000"/><use fill="#FFF" xlink:href="#l"/><use xlink:href="#l"/><circle fill="#FFF" cx="48" cy="25" r="18"/><text font-family="Roboto-Regular, Roboto" font-size="20" letter-spacing="-.5" fill="#000"><tspan x="42.135" y="32">5</tspan></text><text font-family="MaterialIcons-Regular, Material Icons" font-size="30" fill="#607D8B"><tspan x="260" y="40"></tspan></text><text font-family="MaterialIcons-Regular, Material Icons" font-size="30" fill="#607D8B"><tspan x="220" y="40"></tspan></text></g><g transform="translate(10 307)"><rect fill="#E6E33A" filter="url(#m)" width="300" height="50" rx="4"/><path d="M10 16h2v2h-2v-2zm4 0h2v2h-2v-2zm-4 4h2v2h-2v-2zm4 0h2v2h-2v-2zm-4 4h2v2h-2v-2zm4 0h2v2h-2v-2zm-4 4h2v2h-2v-2zm4 0h2v2h-2v-2zm-4 4h2v2h-2v-2zm4 0h2v2h-2v-2z" fill="#000"/><use fill="#FFF" xlink:href="#n"/><use xlink:href="#n"/><circle fill="#FFF" cx="48" cy="25" r="18"/><text font-family="Roboto-Regular, Roboto" font-size="20" letter-spacing="-.5" fill="#000"><tspan x="42.135" y="32">3</tspan></text><text font-family="MaterialIcons-Regular, Material Icons" font-size="30" fill="#607D8B"><tspan x="260" y="40"></tspan></text><text font-family="MaterialIcons-Regular, Material Icons" font-size="30" fill="#607D8B"><tspan x="220" y="40"></tspan></text></g><g transform="translate(10 249)"><rect fill="#CDDC39" filter="url(#o)" width="300" height="50" rx="4"/><path d="M10 16h2v2h-2v-2zm4 0h2v2h-2v-2zm-4 4h2v2h-2v-2zm4 0h2v2h-2v-2zm-4 4h2v2h-2v-2zm4 0h2v2h-2v-2zm-4 4h2v2h-2v-2zm4 0h2v2h-2v-2zm-4 4h2v2h-2v-2zm4 0h2v2h-2v-2z" fill="#000"/><use fill="#FFF" xlink:href="#p"/><use xlink:href="#p"/><circle fill="#FFF" cx="48" cy="25" r="18"/><text font-family="Roboto-Regular, Roboto" font-size="20" letter-spacing="-.5" fill="#000"><tspan x="42.135" y="32">2</tspan></text><text font-family="MaterialIcons-Regular, Material Icons" font-size="30" fill="#607D8B"><tspan x="260" y="40"></tspan></text><text font-family="MaterialIcons-Regular, Material Icons" font-size="30" fill="#607D8B"><tspan x="220" y="40"></tspan></text></g><g transform="translate(10 191)"><rect fill="#ACCF41" filter="url(#q)" width="300" height="50" rx="4"/><path d="M10 16h2v2h-2v-2zm4 0h2v2h-2v-2zm-4 4h2v2h-2v-2zm4 0h2v2h-2v-2zm-4 4h2v2h-2v-2zm4 0h2v2h-2v-2zm-4 4h2v2h-2v-2zm4 0h2v2h-2v-2zm-4 4h2v2h-2v-2zm4 0h2v2h-2v-2z" fill="#000"/><use fill="#FFF" xlink:href="#r"/><use xlink:href="#r"/><circle fill="#FFF" cx="48" cy="25" r="18"/><text font-family="Roboto-Regular, Roboto" font-size="20" letter-spacing="-.5" fill="#000"><tspan x="42.135" y="32">1</tspan></text><text font-family="MaterialIcons-Regular, Material Icons" font-size="30" fill="#607D8B"><tspan x="260" y="40"></tspan></text><text font-family="MaterialIcons-Regular, Material Icons" font-size="30" fill="#607D8B"><tspan x="220" y="40"></tspan></text></g><g transform="translate(10 133)"><rect fill="#8BC34A" filter="url(#s)" width="300" height="50" rx="4"/><path d="M10 16h2v2h-2v-2zm4 0h2v2h-2v-2zm-4 4h2v2h-2v-2zm4 0h2v2h-2v-2zm-4 4h2v2h-2v-2zm4 0h2v2h-2v-2zm-4 4h2v2h-2v-2zm4 0h2v2h-2v-2zm-4 4h2v2h-2v-2zm4 0h2v2h-2v-2z" fill="#000"/><use fill="#FFF" xlink:href="#t"/><use xlink:href="#t"/><circle fill="#FFF" cx="48" cy="25" r="18"/><text font-family="Roboto-Regular, Roboto" font-size="20" letter-spacing="-.5" fill="#000"><tspan x="32.898" y="32">1/2</tspan></text><text font-family="MaterialIcons-Regular, Material Icons" font-size="30" fill="#607D8B"><tspan x="260" y="40"></tspan></text><text font-family="MaterialIcons-Regular, Material Icons" font-size="30" fill="#607D8B"><tspan x="220" y="40"></tspan></text></g><g transform="translate(10 75)"><rect fill="#4CAF50" filter="url(#u)" width="300" height="50" rx="4"/><use fill="#FFF" xlink:href="#v"/><use xlink:href="#v"/><circle fill="#FFF" cx="48" cy="25" r="18"/><text font-family="Roboto-Regular, Roboto" font-size="20" letter-spacing="-.5" fill="#000"><tspan x="42.135" y="32">0</tspan></text><text font-family="MaterialIcons-Regular, Material Icons" font-size="30" fill="#607D8B"><tspan x="260" y="40"></tspan></text><text font-family="MaterialIcons-Regular, Material Icons" font-size="30" fill="#607D8B"><tspan x="220" y="40"></tspan></text><path d="M10 16h2v2h-2v-2zm4 0h2v2h-2v-2zm-4 4h2v2h-2v-2zm4 0h2v2h-2v-2zm-4 4h2v2h-2v-2zm4 0h2v2h-2v-2zm-4 4h2v2h-2v-2zm4 0h2v2h-2v-2zm-4 4h2v2h-2v-2zm4 0h2v2h-2v-2z" fill="#000"/></g><g><path fill="#9C27B0" d="M0 0h320v50H0z"/><text font-family="ArialMT, Arial" font-size="20" letter-spacing="-.5" fill="#FFF"><tspan x="60" y="32">Deck Cards</tspan></text><text font-family="MaterialIcons-Regular, Material Icons" font-size="30" fill="#FFF"><tspan x="10" y="40"></tspan></text></g><g font-size="30" font-family="MaterialIcons-Regular, Material Icons" fill="#FFF"><text transform="translate(195 10)"><tspan x="80" y="30"></tspan></text><text transform="translate(195 10)"><tspan x="0" y="30"></tspan></text></g><text font-family="MaterialIcons-Regular, Material Icons" font-size="30" fill="#FFF"><tspan x="235" y="40"></tspan></text></g></svg>