<svg width="320" height="568" viewBox="0 0 320 568" xmlns="http://www.w3.org/2000/svg"><title>Mobile, Cards</title><defs><filter x="-50%" y="-50%" width="200%" height="200%" filterUnits="objectBoundingBox" id="a"><feOffset dy="1" in="SourceAlpha" result="shadowOffsetOuter1"/><feGaussianBlur stdDeviation="2" in="shadowOffsetOuter1" result="shadowBlurOuter1"/><feColorMatrix values="0 0 0 0 0 0 0 0 0 0 0 0 0 0 0 0 0 0 0.35 0" in="shadowBlurOuter1" result="shadowMatrixOuter1"/><feMerge><feMergeNode in="shadowMatrixOuter1"/><feMergeNode in="SourceGraphic"/></feMerge></filter><filter x="-50%" y="-50%" width="200%" height="200%" filterUnits="objectBoundingBox" id="b"><feOffset dy="1" in="SourceAlpha" result="shadowOffsetOuter1"/><feGaussianBlur stdDeviation="2" in="shadowOffsetOuter1" result="shadowBlurOuter1"/><feColorMatrix values="0 0 0 0 0 0 0 0 0 0 0 0 0 0 0 0 0 0 0.35 0" in="shadowBlurOuter1" result="shadowMatrixOuter1"/><feMerge><feMergeNode in="shadowMatrixOuter1"/><feMergeNode in="SourceGraphic"/></feMerge></filter><filter x="-50%" y="-50%" width="200%" height="200%" filterUnits="objectBoundingBox" id="c"><feOffset dy="1" in="SourceAlpha" result="shadowOffsetOuter1"/><feGaussianBlur stdDeviation="2" in="shadowOffsetOuter1" result="shadowBlurOuter1"/><feColorMatrix values="0 0 0 0 0 0 0 0 0 0 0 0 0 0 0 0 0 0 0.35 0" in="shadowBlurOuter1" result="shadowMatrixOuter1"/><feMerge><feMergeNode in="shadowMatrixOuter1"/><feMergeNode in="SourceGraphic"/></feMerge></filter><filter x="-50%" y="-50%" width="200%" height="200%" filterUnits="objectBoundingBox" id="d"><feOffset dy="1" in="SourceAlpha" result="shadowOffsetOuter1"/><feGaussianBlur stdDeviation="2" in="shadowOffsetOuter1" result="shadowBlurOuter1"/><feColorMatrix values="0 0 0 0 0 0 0 0 0 0 0 0 0 0 0 0 0 0 0.35 0" in="shadowBlurOuter1" result="shadowMatrixOuter1"/><feMerge><feMergeNode in="shadowMatrixOuter1"/><feMergeNode in="SourceGraphic"/></feMerge></filter><filter x="-50%" y="-50%" width="200%" height="200%" filterUnits="objectBoundingBox" id="e"><feOffset dy="1" in="SourceAlpha" result="shadowOffsetOuter1"/><feGaussianBlur stdDeviation="2" in="shadowOffsetOuter1" result="shadowBlurOuter1"/><feColorMatrix values="0 0 0 0 0 0 0 0 0 0 0 0 0 0 0 0 0 0 0.35 0" in="shadowBlurOuter1" result="shadowMatrixOuter1"/><feMerge><feMergeNode in="shadowMatrixOuter1"/><feMergeNode in="SourceGraphic"/></feMerge></filter><filter x="-50%" y="-50%" width="200%" height="200%" filterUnits="objectBoundingBox" id="f"><feOffset dy="1" in="SourceAlpha" result="shadowOffsetOuter1"/><feGaussianBlur stdDeviation="2" in="shadowOffsetOuter1" result="shadowBlurOuter1"/><feColorMatrix values="0 0 0 0 0 0 0 0 0 0 0 0 0 0 0 0 0 0 0.35 0" in="shadowBlurOuter1" result="shadowMatrixOuter1"/><feMerge><feMergeNode in="shadowMatrixOuter1"/><feMergeNode in="SourceGraphic"/></feMerge></filter><filter x="-50%" y="-50%" width="200%" height="200%" filterUnits="objectBoundingBox" id="g"><feOffset dy="1" in="SourceAlpha" result="shadowOffsetOuter1"/><feGaussianBlur stdDeviation="2" in="shadowOffsetOuter1" result="shadowBlurOuter1"/><feColorMatrix values="0 0 0 0 0 0 0 0 0 0 0 0 0 0 0 0 0 0 0.35 0" in="shadowBlurOuter1" result="shadowMatrixOuter1"/><feMerge><feMergeNode in="shadowMatrixOuter1"/><feMergeNode in="SourceGraphic"/></feMerge></filter><filter x="-50%" y="-50%" width="200%" height="200%" filterUnits="objectBoundingBox" id="h"><feOffset dy="1" in="SourceAlpha" result="shadowOffsetOuter1"/><feGaussianBlur stdDeviation="2" in="shadowOffsetOuter1" result="shadowBlurOuter1"/><feColorMatrix values="0 0 0 0 0 0 0 0 0 0 0 0 0 0 0 0 0 0 0.35 0" in="shadowBlurOuter1" result="shadowMatrixOuter1"/><feMerge><feMergeNode in="shadowMatrixOuter1"/><feMergeNode in="SourceGraphic"/></feMerge></filter><filter x="-50%" y="-50%" width="200%" height="200%" filterUnits="objectBoundingBox" id="i"><feOffset dy="1" in="SourceAlpha" result="shadowOffsetOuter1"/><feGaussianBlur stdDeviation="2" in="shadowOffsetOuter1" result="shadowBlurOuter1"/><feColorMatrix values="0 0 0 0 0 0 0 0 0 0 0 0 0 0 0 0 0 0 0.35 0" in="shadowBlurOuter1" result="shadowMatrixOuter1"/><feMerge><feMergeNode in="shadowMatrixOuter1"/><feMergeNode in="SourceGraphic"/></feMerge></filter><filter x="-50%" y="-50%" width="200%" height="200%" filterUnits="objectBoundingBox" id="j"><feOffset dy="1" in="SourceAlpha" result="shadowOffsetOuter1"/><feGaussianBlur stdDeviation="2" in="shadowOffsetOuter1" result="shadowBlurOuter1"/><feColorMatrix values="0 0 0 0 0 0 0 0 0 0 0 0 0 0 0 0 0 0 0.35 0" in="shadowBlurOuter1" result="shadowMatrixOuter1"/><feMerge><feMergeNode in="shadowMatrixOuter1"/><feMergeNode in="SourceGraphic"/></feMerge></filter><filter x="-50%" y="-50%" width="200%" height="200%" filterUnits="objectBoundingBox" id="k"><feOffset dy="1" in="SourceAlpha" result="shadowOffsetOuter1"/><feGaussianBlur stdDeviation="2" in="shadowOffsetOuter1" result="shadowBlurOuter1"/><feColorMatrix values="0 0 0 0 0 0 0 0 0 0 0 0 0 0 0 0 0 0 0.35 0" in="shadowBlurOuter1" result="shadowMatrixOuter1"/><feMerge><feMergeNode in="shadowMatrixOuter1"/><feMergeNode in="SourceGraphic"/></feMerge></filter><filter x="-50%" y="-50%" width="200%" height="200%" filterUnits="objectBoundingBox" id="l"><feOffset dy="1" in="SourceAlpha" result="shadowOffsetOuter1"/><feGaussianBlur stdDeviation="2" in="shadowOffsetOuter1" result="shadowBlurOuter1"/><feColorMatrix values="0 0 0 0 0 0 0 0 0 0 0 0 0 0 0 0 0 0 0.35 0" in="shadowBlurOuter1" result="shadowMatrixOuter1"/><feMerge><feMergeNode in="shadowMatrixOuter1"/><feMergeNode in="SourceGraphic"/></feMerge></filter><filter x="-50%" y="-50%" width="200%" height="200%" filterUnits="objectBoundingBox" id="m"><feOffset dy="1" in="SourceAlpha" result="shadowOffsetOuter1"/><feGaussianBlur stdDeviation="2" in="shadowOffsetOuter1" result="shadowBlurOuter1"/><feColorMatrix values="0 0 0 0 0 0 0 0 0 0 0 0 0 0 0 0 0 0 0.35 0" in="shadowBlurOuter1" result="shadowMatrixOuter1"/><feMerge><feMergeNode in="shadowMatrixOuter1"/><feMergeNode in="SourceGraphic"/></feMerge></filter><filter x="-50%" y="-50%" width="200%" height="200%" filterUnits="objectBoundingBox" id="n"><feOffset dy="1" in="SourceAlpha" result="shadowOffsetOuter1"/><feGaussianBlur stdDeviation="1.5" in="shadowOffsetOuter1" result="shadowBlurOuter1"/><feColorMatrix values="0 0 0 0 0 0 0 0 0 0 0 0 0 0 0 0 0 0 0.35 0" in="shadowBlurOuter1" result="shadowMatrixOuter1"/><feMerge><feMergeNode in="shadowMatrixOuter1"/><feMergeNode in="SourceGraphic"/></feMerge></filter></defs><g fill="none" fill-rule="evenodd"><g transform="translate(8 413)"><rect fill="#FFF" filter="url(#a)" width="70" height="90" rx="4"/><path fill="#795548" d="M0 70h70v20H0z"/><g fill="#010101"><path d="M50.465 27.534c0-1.71-1.003-4.107-5.784-5.82C41.597 20.608 37.53 20 33.234 20c-4.297 0-8.363.608-11.448 1.714-4.782 1.713-5.785 4.11-5.785 5.82 0 7.29.233 13.086 1.37 17.668 1.106 4.45 3.038 7.852 6.457 11.377 2.14 2.203 5.392 3.37 9.405 3.37 4.013 0 7.266-1.167 9.405-3.37 2.604-2.686 4.366-5.424 5.707-8.882.018-.047.06-.155.404-.273.532-.18 1.307-.202 1.846-.202.328 0 .667.01.997.017.326.01.66.018.98.018 2.283 0 4.432-1.047 6.05-2.952 1.512-1.778 2.38-4.16 2.38-6.535 0-2.492-.893-4.745-2.516-6.34-1.526-1.5-3.626-2.326-5.914-2.326-.83 0-1.53.133-2.112.29.007-.592.008-1.21.008-1.86zm8.66 10.238c0 1.87-.686 3.75-1.883 5.158-1.26 1.482-2.918 2.297-4.67 2.297-.613 0-1.296-.035-1.98-.035-1.698 0-3.393.215-3.976 1.72-1.188 3.056-2.762 5.608-5.27 8.195-1.755 1.808-4.517 2.812-8.114 2.812-3.597 0-6.36-1.005-8.114-2.813-6.172-6.364-7.243-12.266-7.243-27.573 0-3.038 6.876-5.5 15.357-5.5 8.482 0 15.358 2.463 15.358 5.5 0 1.543-.01 2.988-.037 4.35.09.016.182.022.274.022.966 0 1.976-.767 3.744-.767 1.822 0 3.475.638 4.655 1.797 1.226 1.204 1.9 2.922 1.9 4.835z"/><path d="M48.386 36.48c-.075 1.274-.59 5.175-.717 6.29.526-.34 1.26-.43 2.025-.43.877 0 1.792.12 2.474.12.144 0 .28-.005.402-.02 2.152-.233 3.984-2.18 3.984-4.668 0-2.338-1.563-3.85-3.984-3.85-2.004 0-3.46 1.114-4.186 2.557zm3.783 3.948c-.26 0-.602-.026-.963-.05a24.71 24.71 0 0 0-1.344-.07c.14-1.146.28-2.346.353-3.168.343-.5 1.05-1.185 2.355-1.185.964 0 2.11.315 2.11 1.817 0 1.5-1.168 2.523-2.296 2.647a2.2 2.2 0 0 1-.215.008zM44.246 25.935c-.228-.133-.513-.04-.636.207a.53.53 0 0 0 .19.688c.626.365.984.758.984 1.076 0 .283-.29.678-1.008 1.09-1.734-1.376-5.8-2.343-10.543-2.343-4.743 0-8.81.967-10.543 2.344-.72-.413-1.008-.808-1.008-1.09 0-.322.36-.714.986-1.08a.53.53 0 0 0 .19-.687c-.122-.247-.406-.34-.634-.207-.982.572-1.48 1.237-1.48 1.974 0 2.6 6.283 3.96 12.488 3.96 6.206 0 12.488-1.36 12.488-3.96 0-.736-.496-1.4-1.474-1.972z"/></g></g><g transform="translate(242 315)"><rect fill="#FFF" filter="url(#b)" width="70" height="90" rx="4"/><path fill="#2196F3" d="M0 70h70v20H0z"/><text opacity=".86" font-family="Roboto-Medium, Roboto" font-size="32" font-weight="400" letter-spacing="-.8" fill="#000"><tspan x="27.619" y="50">?</tspan></text></g><g transform="translate(164 315)"><rect fill="#FFF" filter="url(#c)" width="70" height="90" rx="4"/><path fill="#F44336" d="M0 70h70v20H0z"/><text opacity=".86" font-family="Roboto-Medium, Roboto" font-size="32" font-weight="400" letter-spacing="-.8" fill="#000"><tspan x="8.919" y="49">100</tspan></text></g><g transform="translate(86 315)"><rect fill="#FFF" filter="url(#d)" width="70" height="90" rx="4"/><path fill="#FF5722" d="M0 70h70v20H0z"/><text opacity=".86" font-family="Roboto-Medium, Roboto" font-size="32" font-weight="400" letter-spacing="-.8" fill="#000"><tspan x="17.612" y="49">40</tspan></text></g><g transform="translate(8 315)"><rect fill="#FFF" filter="url(#e)" width="70" height="90" rx="4"/><path fill="#FF9800" d="M0 70h70v20H0z"/><text opacity=".86" font-family="Roboto-Medium, Roboto" font-size="32" font-weight="400" letter-spacing="-.8" fill="#000"><tspan x="17.612" y="49">20</tspan></text></g><g transform="translate(242 217)"><rect fill="#FFF" filter="url(#f)" width="70" height="90" rx="4"/><path fill="#FFAC03" d="M0 70h70v20H0z"/><text opacity=".86" font-family="Roboto-Medium, Roboto" font-size="32" font-weight="400" letter-spacing="-.8" fill="#000"><tspan x="17.612" y="47">13</tspan></text></g><g transform="translate(164 217)"><rect fill="#FFF" filter="url(#g)" width="70" height="90" rx="4"/><path fill="#FFC107" d="M0 70h70v20H0z"/><text opacity=".86" font-family="Roboto-Medium, Roboto" font-size="32" font-weight="400" letter-spacing="-.8" fill="#000"><tspan x="26.306" y="49">8</tspan></text></g><g transform="translate(86 217)"><rect fill="#FFF" filter="url(#h)" width="70" height="90" rx="4"/><path fill="#FFEB3B" d="M0 70h70v20H0z"/><text opacity=".86" font-family="Roboto-Medium, Roboto" font-size="32" font-weight="400" letter-spacing="-.8" fill="#000"><tspan x="26.306" y="49">5</tspan></text></g><g transform="translate(8 217)"><rect fill="#FFF" filter="url(#i)" width="70" height="90" rx="4"/><path fill="#E6E33A" d="M0 70h70v20H0z"/><text opacity=".86" font-family="Roboto-Medium, Roboto" font-size="32" font-weight="400" letter-spacing="-.8" fill="#000"><tspan x="26.306" y="49">3</tspan></text></g><g transform="translate(242 119)"><rect fill="#FFF" filter="url(#j)" width="70" height="90" rx="4"/><path fill="#CDDC39" d="M0 70h70v20H0z"/><text opacity=".86" font-family="Roboto-Medium, Roboto" font-size="32" font-weight="400" letter-spacing="-.8" fill="#000"><tspan x="26.306" y="48">2</tspan></text></g><g transform="translate(164 119)"><rect fill="#FFF" filter="url(#k)" width="70" height="90" rx="4"/><path fill="#ACCF41" d="M0 70h70v20H0z"/><text opacity=".86" font-family="Roboto-Medium, Roboto" font-size="32" font-weight="400" letter-spacing="-.8" fill="#000"><tspan x="26.306" y="49">1</tspan></text></g><g transform="translate(86 119)"><rect fill="#FFF" filter="url(#l)" width="70" height="90" rx="4"/><text opacity=".86" font-family="Roboto-Medium, Roboto" font-size="32" font-weight="400" letter-spacing="-.8" fill="#000"><tspan x="11.684" y="49.06">1/2</tspan></text><path fill="#8BC34A" d="M0 70h70v20H0z"/></g><g transform="translate(8 119)"><rect fill="#FFF" filter="url(#m)" width="70" height="90" rx="4"/><text opacity=".86" font-family="Roboto-Medium, Roboto" font-size="32" font-weight="400" letter-spacing="-.8" fill="#000"><tspan x="26.306" y="49">0</tspan></text><path fill="#4CAF50" d="M0 70h70v20H0z"/></g><g><path fill="#9C27B0" d="M0 0h320v50H0z"/><text font-family="ArialMT, Arial" font-size="20" letter-spacing="-.5" fill="#FFF"><tspan x="20" y="32">Scrum Poker</tspan></text><text font-family="MaterialIcons-Regular, Material Icons" font-size="30" fill="#FFF"><tspan x="280" y="40"></tspan></text></g><g><path fill="#FFF" filter="url(#n)" d="M0 0h320v60H0z" transform="translate(0 49)"/><text font-family="Roboto-Medium, Roboto" font-size="24" font-weight="400" letter-spacing="-.6" fill="#000" transform="translate(0 49)"><tspan x="101.516" y="38">Pick a card:</tspan></text></g></g></svg>