<svg width="1024" height="768" viewBox="0 0 1024 768" xmlns="http://www.w3.org/2000/svg"><title>Tablet, Cards</title><defs><filter x="-50%" y="-50%" width="200%" height="200%" filterUnits="objectBoundingBox" id="a"><feOffset dy="2" in="SourceAlpha" result="shadowOffsetOuter1"/><feGaussianBlur stdDeviation="4" in="shadowOffsetOuter1" result="shadowBlurOuter1"/><feColorMatrix values="0 0 0 0 0 0 0 0 0 0 0 0 0 0 0 0 0 0 0.35 0" in="shadowBlurOuter1" result="shadowMatrixOuter1"/><feMerge><feMergeNode in="shadowMatrixOuter1"/><feMergeNode in="SourceGraphic"/></feMerge></filter><filter x="-50%" y="-50%" width="200%" height="200%" filterUnits="objectBoundingBox" id="b"><feOffset dy="2" in="SourceAlpha" result="shadowOffsetOuter1"/><feGaussianBlur stdDeviation="4" in="shadowOffsetOuter1" result="shadowBlurOuter1"/><feColorMatrix values="0 0 0 0 0 0 0 0 0 0 0 0 0 0 0 0 0 0 0.35 0" in="shadowBlurOuter1" result="shadowMatrixOuter1"/><feMerge><feMergeNode in="shadowMatrixOuter1"/><feMergeNode in="SourceGraphic"/></feMerge></filter><filter x="-50%" y="-50%" width="200%" height="200%" filterUnits="objectBoundingBox" id="c"><feOffset dy="2" in="SourceAlpha" result="shadowOffsetOuter1"/><feGaussianBlur stdDeviation="4" in="shadowOffsetOuter1" result="shadowBlurOuter1"/><feColorMatrix values="0 0 0 0 0 0 0 0 0 0 0 0 0 0 0 0 0 0 0.35 0" in="shadowBlurOuter1" result="shadowMatrixOuter1"/><feMerge><feMergeNode in="shadowMatrixOuter1"/><feMergeNode in="SourceGraphic"/></feMerge></filter><filter x="-50%" y="-50%" width="200%" height="200%" filterUnits="objectBoundingBox" id="d"><feOffset dy="2" in="SourceAlpha" result="shadowOffsetOuter1"/><feGaussianBlur stdDeviation="4" in="shadowOffsetOuter1" result="shadowBlurOuter1"/><feColorMatrix values="0 0 0 0 0 0 0 0 0 0 0 0 0 0 0 0 0 0 0.35 0" in="shadowBlurOuter1" result="shadowMatrixOuter1"/><feMerge><feMergeNode in="shadowMatrixOuter1"/><feMergeNode in="SourceGraphic"/></feMerge></filter><filter x="-50%" y="-50%" width="200%" height="200%" filterUnits="objectBoundingBox" id="e"><feOffset dy="2" in="SourceAlpha" result="shadowOffsetOuter1"/><feGaussianBlur stdDeviation="4" in="shadowOffsetOuter1" result="shadowBlurOuter1"/><feColorMatrix values="0 0 0 0 0 0 0 0 0 0 0 0 0 0 0 0 0 0 0.35 0" in="shadowBlurOuter1" result="shadowMatrixOuter1"/><feMerge><feMergeNode in="shadowMatrixOuter1"/><feMergeNode in="SourceGraphic"/></feMerge></filter><filter x="-50%" y="-50%" width="200%" height="200%" filterUnits="objectBoundingBox" id="f"><feOffset dy="2" in="SourceAlpha" result="shadowOffsetOuter1"/><feGaussianBlur stdDeviation="4" in="shadowOffsetOuter1" result="shadowBlurOuter1"/><feColorMatrix values="0 0 0 0 0 0 0 0 0 0 0 0 0 0 0 0 0 0 0.35 0" in="shadowBlurOuter1" result="shadowMatrixOuter1"/><feMerge><feMergeNode in="shadowMatrixOuter1"/><feMergeNode in="SourceGraphic"/></feMerge></filter><filter x="-50%" y="-50%" width="200%" height="200%" filterUnits="objectBoundingBox" id="g"><feOffset dy="2" in="SourceAlpha" result="shadowOffsetOuter1"/><feGaussianBlur stdDeviation="4" in="shadowOffsetOuter1" result="shadowBlurOuter1"/><feColorMatrix values="0 0 0 0 0 0 0 0 0 0 0 0 0 0 0 0 0 0 0.35 0" in="shadowBlurOuter1" result="shadowMatrixOuter1"/><feMerge><feMergeNode in="shadowMatrixOuter1"/><feMergeNode in="SourceGraphic"/></feMerge></filter><filter x="-50%" y="-50%" width="200%" height="200%" filterUnits="objectBoundingBox" id="h"><feOffset dy="2" in="SourceAlpha" result="shadowOffsetOuter1"/><feGaussianBlur stdDeviation="4" in="shadowOffsetOuter1" result="shadowBlurOuter1"/><feColorMatrix values="0 0 0 0 0 0 0 0 0 0 0 0 0 0 0 0 0 0 0.35 0" in="shadowBlurOuter1" result="shadowMatrixOuter1"/><feMerge><feMergeNode in="shadowMatrixOuter1"/><feMergeNode in="SourceGraphic"/></feMerge></filter><filter x="-50%" y="-50%" width="200%" height="200%" filterUnits="objectBoundingBox" id="i"><feOffset dy="2" in="SourceAlpha" result="shadowOffsetOuter1"/><feGaussianBlur stdDeviation="4" in="shadowOffsetOuter1" result="shadowBlurOuter1"/><feColorMatrix values="0 0 0 0 0 0 0 0 0 0 0 0 0 0 0 0 0 0 0.35 0" in="shadowBlurOuter1" result="shadowMatrixOuter1"/><feMerge><feMergeNode in="shadowMatrixOuter1"/><feMergeNode in="SourceGraphic"/></feMerge></filter><filter x="-50%" y="-50%" width="200%" height="200%" filterUnits="objectBoundingBox" id="j"><feOffset dy="2" in="SourceAlpha" result="shadowOffsetOuter1"/><feGaussianBlur stdDeviation="4" in="shadowOffsetOuter1" result="shadowBlurOuter1"/><feColorMatrix values="0 0 0 0 0 0 0 0 0 0 0 0 0 0 0 0 0 0 0.35 0" in="shadowBlurOuter1" result="shadowMatrixOuter1"/><feMerge><feMergeNode in="shadowMatrixOuter1"/><feMergeNode in="SourceGraphic"/></feMerge></filter><filter x="-50%" y="-50%" width="200%" height="200%" filterUnits="objectBoundingBox" id="k"><feOffset dy="2" in="SourceAlpha" result="shadowOffsetOuter1"/><feGaussianBlur stdDeviation="4" in="shadowOffsetOuter1" result="shadowBlurOuter1"/><feColorMatrix values="0 0 0 0 0 0 0 0 0 0 0 0 0 0 0 0 0 0 0.35 0" in="shadowBlurOuter1" result="shadowMatrixOuter1"/><feMerge><feMergeNode in="shadowMatrixOuter1"/><feMergeNode in="SourceGraphic"/></feMerge></filter><filter x="-50%" y="-50%" width="200%" height="200%" filterUnits="objectBoundingBox" id="l"><feOffset dy="2" in="SourceAlpha" result="shadowOffsetOuter1"/><feGaussianBlur stdDeviation="4" in="shadowOffsetOuter1" result="shadowBlurOuter1"/><feColorMatrix values="0 0 0 0 0 0 0 0 0 0 0 0 0 0 0 0 0 0 0.35 0" in="shadowBlurOuter1" result="shadowMatrixOuter1"/><feMerge><feMergeNode in="shadowMatrixOuter1"/><feMergeNode in="SourceGraphic"/></feMerge></filter><filter x="-50%" y="-50%" width="200%" height="200%" filterUnits="objectBoundingBox" id="m"><feOffset dy="2" in="SourceAlpha" result="shadowOffsetOuter1"/><feGaussianBlur stdDeviation="4" in="shadowOffsetOuter1" result="shadowBlurOuter1"/><feColorMatrix values="0 0 0 0 0 0 0 0 0 0 0 0 0 0 0 0 0 0 0.35 0" in="shadowBlurOuter1" result="shadowMatrixOuter1"/><feMerge><feMergeNode in="shadowMatrixOuter1"/><feMergeNode in="SourceGraphic"/></feMerge></filter><filter x="-50%" y="-50%" width="200%" height="200%" filterUnits="objectBoundingBox" id="n"><feOffset dy="1" in="SourceAlpha" result="shadowOffsetOuter1"/><feGaussianBlur stdDeviation="1.5" in="shadowOffsetOuter1" result="shadowBlurOuter1"/><feColorMatrix values="0 0 0 0 0 0 0 0 0 0 0 0 0 0 0 0 0 0 0.35 0" in="shadowBlurOuter1" result="shadowMatrixOuter1"/><feMerge><feMergeNode in="shadowMatrixOuter1"/><feMergeNode in="SourceGraphic"/></feMerge></filter></defs><g fill="none" fill-rule="evenodd"><g transform="translate(468 520)"><rect fill="#FFF" filter="url(#a)" width="140" height="180" rx="8"/><path fill="#795548" d="M0 140h140v40H0z"/><g fill="#010101"><path d="M100.93 52.067c0-3.417-2.005-8.212-11.568-11.64C83.192 38.218 75.06 37 66.466 37c-8.594 0-16.725 1.217-22.896 3.428C34.006 43.854 32 48.65 32 52.068c0 14.582.466 26.173 2.742 35.337 2.21 8.897 6.074 15.703 12.912 22.752 4.28 4.41 10.784 6.744 18.81 6.744 8.027 0 14.53-2.334 18.81-6.743 5.21-5.37 8.732-10.846 11.414-17.762.035-.093.12-.308.808-.544 1.064-.362 2.614-.403 3.692-.403.656 0 1.334.017 1.995.034.65.02 1.318.036 1.96.036 4.564 0 8.86-2.095 12.097-5.903 3.024-3.557 4.76-8.32 4.76-13.07 0-4.987-1.786-9.492-5.033-12.683-3.05-3-7.25-4.65-11.827-4.65-1.662 0-3.06.263-4.224.58.013-1.185.015-2.424.015-3.723zm17.322 20.477c0 3.74-1.374 7.5-3.768 10.316-2.52 2.963-5.835 4.595-9.342 4.595-1.223 0-2.59-.072-3.955-.072-3.4 0-6.79.432-7.956 3.438-2.374 6.116-5.522 11.22-10.54 16.394-3.508 3.615-9.032 5.624-16.226 5.624-7.195 0-12.718-2.01-16.227-5.624C37.892 94.486 35.75 82.684 35.75 52.068c0-6.076 13.75-11 30.715-11 16.964 0 30.715 4.926 30.715 11 0 3.086-.022 5.977-.074 8.702.183.03.365.043.547.043 1.933 0 3.954-1.536 7.49-1.536 3.64 0 6.947 1.278 9.308 3.597 2.45 2.41 3.802 5.844 3.802 9.67z"/><path d="M96.77 69.957c-.148 2.55-1.18 10.353-1.432 12.584 1.054-.68 2.525-.86 4.05-.86 1.756 0 3.585.24 4.95.24.29 0 .563-.01.806-.038 4.304-.468 7.97-4.363 7.97-9.338 0-4.676-3.13-7.697-7.97-7.697-4.008 0-6.918 2.224-8.373 5.11zm7.568 7.9c-.516 0-1.202-.052-1.925-.103a49.422 49.422 0 0 0-2.687-.138c.28-2.292.56-4.692.706-6.336.686-.997 2.103-2.37 4.71-2.37 1.926 0 4.22.63 4.22 3.634 0 3-2.337 5.046-4.594 5.294a4.4 4.4 0 0 1-.43.018zM88.49 48.87c-.454-.265-1.023-.08-1.27.414-.244.495-.074 1.11.383 1.376 1.25.73 1.965 1.516 1.965 2.153 0 .566-.58 1.355-2.016 2.18-3.468-2.752-11.6-4.687-21.087-4.687-9.485 0-17.617 1.934-21.085 4.688-1.437-.826-2.017-1.615-2.017-2.18 0-.643.72-1.428 1.973-2.158.456-.266.627-.88.382-1.375-.245-.494-.814-.68-1.27-.415-1.964 1.146-2.96 2.475-2.96 3.95 0 5.2 12.566 7.92 24.977 7.92 12.41 0 24.975-2.72 24.975-7.92 0-1.474-.99-2.8-2.95-3.945z"/></g></g><g transform="translate(312 520)"><rect fill="#FFF" filter="url(#b)" width="140" height="180" rx="8"/><path fill="#2196F3" d="M0 140h140v40H0z"/><text opacity=".86" font-family="Roboto-Medium, Roboto" font-size="64" font-weight="400" letter-spacing="-1.6" fill="#000"><tspan x="55.237" y="96">?</tspan></text></g><g transform="translate(156 520)"><rect fill="#FFF" filter="url(#c)" width="140" height="180" rx="8"/><path fill="#F44336" d="M0 140h140v40H0z"/><text opacity=".86" font-family="Roboto-Medium, Roboto" font-size="64" font-weight="400" letter-spacing="-1.6" fill="#000"><tspan x="17.837" y="94">100</tspan></text></g><g transform="translate(780 324)"><rect fill="#FFF" filter="url(#d)" width="140" height="180" rx="8"/><path fill="#FF5722" d="M0 140h140v40H0z"/><text opacity=".86" font-family="Roboto-Medium, Roboto" font-size="64" font-weight="400" letter-spacing="-1.6" fill="#000"><tspan x="35.225" y="94">40</tspan></text></g><g transform="translate(624 324)"><rect fill="#FFF" filter="url(#e)" width="140" height="180" rx="8"/><path fill="#FF9800" d="M0 140h140v40H0z"/><text opacity=".86" font-family="Roboto-Medium, Roboto" font-size="64" font-weight="400" letter-spacing="-1.6" fill="#000"><tspan x="35.225" y="94">20</tspan></text></g><g transform="translate(468 324)"><rect fill="#FFF" filter="url(#f)" width="140" height="180" rx="8"/><path fill="#FFAC03" d="M0 140h140v40H0z"/><text opacity=".86" font-family="Roboto-Medium, Roboto" font-size="64" font-weight="400" letter-spacing="-1.6" fill="#000"><tspan x="35.225" y="94">13</tspan></text></g><g transform="translate(312 324)"><rect fill="#FFF" filter="url(#g)" width="140" height="180" rx="8"/><path fill="#FFC107" d="M0 140h140v40H0z"/><text opacity=".86" font-family="Roboto-Medium, Roboto" font-size="64" font-weight="400" letter-spacing="-1.6" fill="#000"><tspan x="52.612" y="94">8</tspan></text></g><g transform="translate(156 324)"><rect fill="#FFF" filter="url(#h)" width="140" height="180" rx="8"/><path fill="#FFEB3B" d="M0 140h140v40H0z"/><text opacity=".86" font-family="Roboto-Medium, Roboto" font-size="64" font-weight="400" letter-spacing="-1.6" fill="#000"><tspan x="52.612" y="94">5</tspan></text></g><g transform="translate(780 128)"><rect fill="#FFF" filter="url(#i)" width="140" height="180" rx="8"/><path fill="#E6E33A" d="M0 140h140v40H0z"/><text opacity=".86" font-family="Roboto-Medium, Roboto" font-size="64" font-weight="400" letter-spacing="-1.6" fill="#000"><tspan x="52.612" y="94">3</tspan></text></g><g transform="translate(624 128)"><rect fill="#FFF" filter="url(#j)" width="140" height="180" rx="8"/><path fill="#CDDC39" d="M0 140h140v40H0z"/><text opacity=".86" font-family="Roboto-Medium, Roboto" font-size="64" font-weight="400" letter-spacing="-1.6" fill="#000"><tspan x="52.612" y="92">2</tspan></text></g><g transform="translate(468 128)"><rect fill="#FFF" filter="url(#k)" width="140" height="180" rx="8"/><path fill="#ACCF41" d="M0 140h140v40H0z"/><text opacity=".86" font-family="Roboto-Medium, Roboto" font-size="64" font-weight="400" letter-spacing="-1.6" fill="#000"><tspan x="52.612" y="94">1</tspan></text></g><g transform="translate(312 128)"><rect fill="#FFF" filter="url(#l)" width="140" height="180" rx="8"/><text opacity=".86" font-family="Roboto-Medium, Roboto" font-size="64" font-weight="400" letter-spacing="-1.6" fill="#000"><tspan x="23.369" y="94.12">1/2</tspan></text><path fill="#8BC34A" d="M0 140h140v40H0z"/></g><g transform="translate(156 128)"><rect fill="#FFF" filter="url(#m)" width="140" height="180" rx="8"/><text opacity=".86" font-family="Roboto-Medium, Roboto" font-size="64" font-weight="400" letter-spacing="-1.6" fill="#000"><tspan x="52.612" y="94">0</tspan></text><path fill="#4CAF50" d="M0 140h140v40H0z"/></g><g><path fill="#9C27B0" d="M0 0h1024v50H0z"/><text font-family="ArialMT, Arial" font-size="20" letter-spacing="-.5" fill="#FFF"><tspan x="20" y="32">Scrum Poker</tspan></text><text font-family="MaterialIcons-Regular, Material Icons" font-size="30" fill="#FFF"><tspan x="984" y="40"></tspan></text></g><g><path fill="#FFF" filter="url(#n)" d="M0 0h1024v60H0z" transform="translate(0 50)"/><text font-family="Roboto-Medium, Roboto" font-size="28" font-weight="400" letter-spacing="-.7" fill="#000" transform="translate(0 50)"><tspan x="443.185" y="39">Pick a card:</tspan></text></g></g></svg>