<svg width="1024" height="768" viewBox="0 0 1024 768" xmlns="http://www.w3.org/2000/svg" xmlns:xlink="http://www.w3.org/1999/xlink"><title>Tablet, Wait for Team</title><defs><filter x="-50%" y="-50%" width="200%" height="200%" filterUnits="objectBoundingBox" id="a"><feOffset dy="2" in="SourceAlpha" result="shadowOffsetOuter1"/><feGaussianBlur stdDeviation="2.5" in="shadowOffsetOuter1" result="shadowBlurOuter1"/><feColorMatrix values="0 0 0 0 0 0 0 0 0 0 0 0 0 0 0 0 0 0 0.35 0" in="shadowBlurOuter1" result="shadowMatrixOuter1"/><feMerge><feMergeNode in="shadowMatrixOuter1"/><feMergeNode in="SourceGraphic"/></feMerge></filter><path id="b" d="M397.43 0h167.675v75h-225L397.43 0z"/><filter x="-50%" y="-50%" width="200%" height="200%" filterUnits="objectBoundingBox" id="c"><feOffset dy="2" in="SourceAlpha" result="shadowOffsetOuter1"/><feGaussianBlur stdDeviation="2.5" in="shadowOffsetOuter1" result="shadowBlurOuter1"/><feColorMatrix values="0 0 0 0 0 0 0 0 0 0 0 0 0 0 0 0 0 0 0.35 0" in="shadowBlurOuter1" result="shadowMatrixOuter1"/><feMerge><feMergeNode in="shadowMatrixOuter1"/><feMergeNode in="SourceGraphic"/></feMerge></filter><path id="d" d="M397.43 0h167.675v75h-225L397.43 0z"/><filter x="-50%" y="-50%" width="200%" height="200%" filterUnits="objectBoundingBox" id="e"><feOffset dy="2" in="SourceAlpha" result="shadowOffsetOuter1"/><feGaussianBlur stdDeviation="2.5" in="shadowOffsetOuter1" result="shadowBlurOuter1"/><feColorMatrix values="0 0 0 0 0 0 0 0 0 0 0 0 0 0 0 0 0 0 0.35 0" in="shadowBlurOuter1" result="shadowMatrixOuter1"/><feMerge><feMergeNode in="shadowMatrixOuter1"/><feMergeNode in="SourceGraphic"/></feMerge></filter><path id="f" d="M397.43 0h167.675v75h-225L397.43 0z"/><filter x="-50%" y="-50%" width="200%" height="200%" filterUnits="objectBoundingBox" id="g"><feOffset dy="2" in="SourceAlpha" result="shadowOffsetOuter1"/><feGaussianBlur stdDeviation="2.5" in="shadowOffsetOuter1" result="shadowBlurOuter1"/><feColorMatrix values="0 0 0 0 0 0 0 0 0 0 0 0 0 0 0 0 0 0 0.35 0" in="shadowBlurOuter1" result="shadowMatrixOuter1"/><feMerge><feMergeNode in="shadowMatrixOuter1"/><feMergeNode in="SourceGraphic"/></feMerge></filter><path id="h" d="M397.43 0h167.675v75h-225L397.43 0z"/><filter x="-50%" y="-50%" width="200%" height="200%" filterUnits="objectBoundingBox" id="i"><feOffset dy="2" in="SourceAlpha" result="shadowOffsetOuter1"/><feGaussianBlur stdDeviation="2.5" in="shadowOffsetOuter1" result="shadowBlurOuter1"/><feColorMatrix values="0 0 0 0 0 0 0 0 0 0 0 0 0 0 0 0 0 0 0.35 0" in="shadowBlurOuter1" result="shadowMatrixOuter1"/><feMerge><feMergeNode in="shadowMatrixOuter1"/><feMergeNode in="SourceGraphic"/></feMerge></filter><path id="j" d="M397.43 0h167.675v75h-225L397.43 0z"/><filter x="-50%" y="-50%" width="200%" height="200%" filterUnits="objectBoundingBox" id="k"><feOffset dy="2" in="SourceAlpha" result="shadowOffsetOuter1"/><feGaussianBlur stdDeviation="2.5" in="shadowOffsetOuter1" result="shadowBlurOuter1"/><feColorMatrix values="0 0 0 0 0 0 0 0 0 0 0 0 0 0 0 0 0 0 0.35 0" in="shadowBlurOuter1" result="shadowMatrixOuter1"/><feMerge><feMergeNode in="shadowMatrixOuter1"/><feMergeNode in="SourceGraphic"/></feMerge></filter><path id="l" d="M397.43 0h167.675v75h-225L397.43 0z"/><filter x="-50%" y="-50%" width="200%" height="200%" filterUnits="objectBoundingBox" id="m"><feOffset dy="1" in="SourceAlpha" result="shadowOffsetOuter1"/><feGaussianBlur stdDeviation="1.5" in="shadowOffsetOuter1" result="shadowBlurOuter1"/><feColorMatrix values="0 0 0 0 0 0 0 0 0 0 0 0 0 0 0 0 0 0 0.35 0" in="shadowBlurOuter1" result="shadowMatrixOuter1"/><feMerge><feMergeNode in="shadowMatrixOuter1"/><feMergeNode in="SourceGraphic"/></feMerge></filter></defs><g fill="none" fill-rule="evenodd"><g transform="translate(202 574)"><rect fill="#FFEB3B" filter="url(#a)" width="620" height="75" rx="6"/><use fill="#FFF" xlink:href="#b"/><use xlink:href="#b"/><text font-family="Roboto-Regular, Roboto" font-size="32" letter-spacing="-.8" fill="#000"><tspan x="414.203" y="47.5">+5:01</tspan></text><text font-family="Roboto-Regular, Roboto" font-size="32" letter-spacing="-.8" fill="#000"><tspan x="199" y="47.5">Jeremy</tspan></text><circle fill="#FFF" cx="127" cy="37.5" r="27"/><path d="M139.128 22.5l-11.027.12a4.204 4.204 0 0 0-2.135.608l-5.1 1.333a.925.925 0 0 0-.056.018l-1.742.582v-.002l-.01.005-.2.066a4.126 4.126 0 0 0-1.334.74l-1.5.79-1.03.55-.015-.02-.165.118-.503.27a4.046 4.046 0 0 0-1.154.922l-2.604 1.873a3.858 3.858 0 0 0-1.53 2.645c-.118 1.03.183 2.042.85 2.855l10.573 15.005a.887.887 0 0 0 .04.05c.828.998 2.064 1.502 3.3 1.47a4.16 4.16 0 0 0 2.42-.845l2.932-2.076 3.31-.6 1.688-.305-.01.127 5.342.14h.064c2.215-.057 3.99-2.036 3.966-4.166l-.242-18.296c-.025-2.163-1.88-4.002-4.13-3.978zm-21.043 5.318c.113-.198.255-.376.42-.532l1.234-.65.615-.206a3.786 3.786 0 0 0-.276 2.293l3.232 17.898-5.383-16.897-.01-.03a2.24 2.24 0 0 1 .165-1.875zm5.98-1.232l.21 15.978-2.55-14.12c0-.005-.002-.01-.003-.013-.125-.635.036-1.298.44-1.817.36-.464.888-.78 1.48-.887l.533-.096c-.077.31-.114.63-.11.956zm-7.927 1.952c-.06.558.005 1.128.198 1.67l5.405 16.965-7.525-14.902a2.236 2.236 0 0 1 .125-2.515l1.386-.996.412-.222zm-4.94 6.46a2.235 2.235 0 0 1-.51-1.703c.07-.61.382-1.158.88-1.545l.656-.472c.027.595.194 1.18.497 1.713l7.417 14.685-8.898-12.627a1.22 1.22 0 0 0-.04-.05zm30.625 9.597c.015 1.257-1.037 2.308-2.344 2.34l-11.068.12c-1.33.015-2.422-1.012-2.437-2.29l-.24-18.198c-.005-.51.16-1 .478-1.408a2.428 2.428 0 0 1 1.868-.933l11.066-.12c1.33-.015 2.423 1.012 2.438 2.29l.238 18.198z" fill="#000"/></g><g transform="translate(202 487)"><rect fill="#E6E33A" filter="url(#c)" width="620" height="75" rx="6"/><use fill="#FFF" xlink:href="#d"/><use xlink:href="#d"/><text font-family="Roboto-Regular, Roboto" font-size="32" letter-spacing="-.8" fill="#000"><tspan x="414.203" y="47.5">+1:23</tspan></text><text font-family="Roboto-Regular, Roboto" font-size="32" letter-spacing="-.8" fill="#000"><tspan x="199" y="47.5">Jack</tspan></text><circle fill="#FFF" cx="127" cy="37.5" r="27"/><path d="M139.128 22.5l-11.027.12a4.204 4.204 0 0 0-2.135.608l-5.1 1.333a.925.925 0 0 0-.056.018l-1.742.582v-.002l-.01.005-.2.066a4.126 4.126 0 0 0-1.334.74l-1.5.79-1.03.55-.015-.02-.165.118-.503.27a4.046 4.046 0 0 0-1.154.922l-2.604 1.873a3.858 3.858 0 0 0-1.53 2.645c-.118 1.03.183 2.042.85 2.855l10.573 15.005a.887.887 0 0 0 .04.05c.828.998 2.064 1.502 3.3 1.47a4.16 4.16 0 0 0 2.42-.845l2.932-2.076 3.31-.6 1.688-.305-.01.127 5.342.14h.064c2.215-.057 3.99-2.036 3.966-4.166l-.242-18.296c-.025-2.163-1.88-4.002-4.13-3.978zm-21.043 5.318c.113-.198.255-.376.42-.532l1.234-.65.615-.206a3.786 3.786 0 0 0-.276 2.293l3.232 17.898-5.383-16.897-.01-.03a2.24 2.24 0 0 1 .165-1.875zm5.98-1.232l.21 15.978-2.55-14.12c0-.005-.002-.01-.003-.013-.125-.635.036-1.298.44-1.817.36-.464.888-.78 1.48-.887l.533-.096c-.077.31-.114.63-.11.956zm-7.927 1.952c-.06.558.005 1.128.198 1.67l5.405 16.965-7.525-14.902a2.236 2.236 0 0 1 .125-2.515l1.386-.996.412-.222zm-4.94 6.46a2.235 2.235 0 0 1-.51-1.703c.07-.61.382-1.158.88-1.545l.656-.472c.027.595.194 1.18.497 1.713l7.417 14.685-8.898-12.627a1.22 1.22 0 0 0-.04-.05zm30.625 9.597c.015 1.257-1.037 2.308-2.344 2.34l-11.068.12c-1.33.015-2.422-1.012-2.437-2.29l-.24-18.198c-.005-.51.16-1 .478-1.408a2.428 2.428 0 0 1 1.868-.933l11.066-.12c1.33-.015 2.423 1.012 2.438 2.29l.238 18.198z" fill="#000"/></g><g transform="translate(202 400)"><rect fill="#CDDC39" filter="url(#e)" width="620" height="75" rx="6"/><use fill="#FFF" xlink:href="#f"/><use xlink:href="#f"/><text font-family="Roboto-Regular, Roboto" font-size="32" letter-spacing="-.8" fill="#000"><tspan x="414.203" y="47.5">+0:54</tspan></text><text font-family="Roboto-Regular, Roboto" font-size="32" letter-spacing="-.8" fill="#000"><tspan x="199" y="47.5">Valery</tspan></text><circle fill="#FFF" cx="127" cy="37.5" r="27"/><path d="M139.128 22.5l-11.027.12a4.204 4.204 0 0 0-2.135.608l-5.1 1.333a.925.925 0 0 0-.056.018l-1.742.582v-.002l-.01.005-.2.066a4.126 4.126 0 0 0-1.334.74l-1.5.79-1.03.55-.015-.02-.165.118-.503.27a4.046 4.046 0 0 0-1.154.922l-2.604 1.873a3.858 3.858 0 0 0-1.53 2.645c-.118 1.03.183 2.042.85 2.855l10.573 15.005a.887.887 0 0 0 .04.05c.828.998 2.064 1.502 3.3 1.47a4.16 4.16 0 0 0 2.42-.845l2.932-2.076 3.31-.6 1.688-.305-.01.127 5.342.14h.064c2.215-.057 3.99-2.036 3.966-4.166l-.242-18.296c-.025-2.163-1.88-4.002-4.13-3.978zm-21.043 5.318c.113-.198.255-.376.42-.532l1.234-.65.615-.206a3.786 3.786 0 0 0-.276 2.293l3.232 17.898-5.383-16.897-.01-.03a2.24 2.24 0 0 1 .165-1.875zm5.98-1.232l.21 15.978-2.55-14.12c0-.005-.002-.01-.003-.013-.125-.635.036-1.298.44-1.817.36-.464.888-.78 1.48-.887l.533-.096c-.077.31-.114.63-.11.956zm-7.927 1.952c-.06.558.005 1.128.198 1.67l5.405 16.965-7.525-14.902a2.236 2.236 0 0 1 .125-2.515l1.386-.996.412-.222zm-4.94 6.46a2.235 2.235 0 0 1-.51-1.703c.07-.61.382-1.158.88-1.545l.656-.472c.027.595.194 1.18.497 1.713l7.417 14.685-8.898-12.627a1.22 1.22 0 0 0-.04-.05zm30.625 9.597c.015 1.257-1.037 2.308-2.344 2.34l-11.068.12c-1.33.015-2.422-1.012-2.437-2.29l-.24-18.198c-.005-.51.16-1 .478-1.408a2.428 2.428 0 0 1 1.868-.933l11.066-.12c1.33-.015 2.423 1.012 2.438 2.29l.238 18.198z" fill="#000"/></g><g transform="translate(202 313)"><rect fill="#ACCF41" filter="url(#g)" width="620" height="75" rx="6"/><use fill="#FFF" xlink:href="#h"/><use xlink:href="#h"/><text font-family="Roboto-Regular, Roboto" font-size="32" letter-spacing="-.8" fill="#000"><tspan x="414.203" y="47.5">+0:23</tspan></text><text font-family="Roboto-Regular, Roboto" font-size="32" letter-spacing="-.8" fill="#000"><tspan x="199" y="47.5">Eugene</tspan></text><circle fill="#FFF" cx="127" cy="37.5" r="27"/><path d="M139.128 22.5l-11.027.12a4.204 4.204 0 0 0-2.135.608l-5.1 1.333a.925.925 0 0 0-.056.018l-1.742.582v-.002l-.01.005-.2.066a4.126 4.126 0 0 0-1.334.74l-1.5.79-1.03.55-.015-.02-.165.118-.503.27a4.046 4.046 0 0 0-1.154.922l-2.604 1.873a3.858 3.858 0 0 0-1.53 2.645c-.118 1.03.183 2.042.85 2.855l10.573 15.005a.887.887 0 0 0 .04.05c.828.998 2.064 1.502 3.3 1.47a4.16 4.16 0 0 0 2.42-.845l2.932-2.076 3.31-.6 1.688-.305-.01.127 5.342.14h.064c2.215-.057 3.99-2.036 3.966-4.166l-.242-18.296c-.025-2.163-1.88-4.002-4.13-3.978zm-21.043 5.318c.113-.198.255-.376.42-.532l1.234-.65.615-.206a3.786 3.786 0 0 0-.276 2.293l3.232 17.898-5.383-16.897-.01-.03a2.24 2.24 0 0 1 .165-1.875zm5.98-1.232l.21 15.978-2.55-14.12c0-.005-.002-.01-.003-.013-.125-.635.036-1.298.44-1.817.36-.464.888-.78 1.48-.887l.533-.096c-.077.31-.114.63-.11.956zm-7.927 1.952c-.06.558.005 1.128.198 1.67l5.405 16.965-7.525-14.902a2.236 2.236 0 0 1 .125-2.515l1.386-.996.412-.222zm-4.94 6.46a2.235 2.235 0 0 1-.51-1.703c.07-.61.382-1.158.88-1.545l.656-.472c.027.595.194 1.18.497 1.713l7.417 14.685-8.898-12.627a1.22 1.22 0 0 0-.04-.05zm30.625 9.597c.015 1.257-1.037 2.308-2.344 2.34l-11.068.12c-1.33.015-2.422-1.012-2.437-2.29l-.24-18.198c-.005-.51.16-1 .478-1.408a2.428 2.428 0 0 1 1.868-.933l11.066-.12c1.33-.015 2.423 1.012 2.438 2.29l.238 18.198z" fill="#000"/></g><g transform="translate(202 226)"><rect fill="#8BC34A" filter="url(#i)" width="620" height="75" rx="6"/><use fill="#FFF" xlink:href="#j"/><use xlink:href="#j"/><text font-family="Roboto-Regular, Roboto" font-size="32" letter-spacing="-.8" fill="#000"><tspan x="414.203" y="47.5">+0:15</tspan></text><text font-family="Roboto-Regular, Roboto" font-size="32" letter-spacing="-.8" fill="#000"><tspan x="199" y="47.5">Ann</tspan></text><circle fill="#FFF" cx="127" cy="37.5" r="27"/><path d="M139.128 22.5l-11.027.12a4.204 4.204 0 0 0-2.135.608l-5.1 1.333a.925.925 0 0 0-.056.018l-1.742.582v-.002l-.01.005-.2.066a4.126 4.126 0 0 0-1.334.74l-1.5.79-1.03.55-.015-.02-.165.118-.503.27a4.046 4.046 0 0 0-1.154.922l-2.604 1.873a3.858 3.858 0 0 0-1.53 2.645c-.118 1.03.183 2.042.85 2.855l10.573 15.005a.887.887 0 0 0 .04.05c.828.998 2.064 1.502 3.3 1.47a4.16 4.16 0 0 0 2.42-.845l2.932-2.076 3.31-.6 1.688-.305-.01.127 5.342.14h.064c2.215-.057 3.99-2.036 3.966-4.166l-.242-18.296c-.025-2.163-1.88-4.002-4.13-3.978zm-21.043 5.318c.113-.198.255-.376.42-.532l1.234-.65.615-.206a3.786 3.786 0 0 0-.276 2.293l3.232 17.898-5.383-16.897-.01-.03a2.24 2.24 0 0 1 .165-1.875zm5.98-1.232l.21 15.978-2.55-14.12c0-.005-.002-.01-.003-.013-.125-.635.036-1.298.44-1.817.36-.464.888-.78 1.48-.887l.533-.096c-.077.31-.114.63-.11.956zm-7.927 1.952c-.06.558.005 1.128.198 1.67l5.405 16.965-7.525-14.902a2.236 2.236 0 0 1 .125-2.515l1.386-.996.412-.222zm-4.94 6.46a2.235 2.235 0 0 1-.51-1.703c.07-.61.382-1.158.88-1.545l.656-.472c.027.595.194 1.18.497 1.713l7.417 14.685-8.898-12.627a1.22 1.22 0 0 0-.04-.05zm30.625 9.597c.015 1.257-1.037 2.308-2.344 2.34l-11.068.12c-1.33.015-2.422-1.012-2.437-2.29l-.24-18.198c-.005-.51.16-1 .478-1.408a2.428 2.428 0 0 1 1.868-.933l11.066-.12c1.33-.015 2.423 1.012 2.438 2.29l.238 18.198z" fill="#000"/></g><g transform="translate(202 139)"><rect fill="#4CAF50" filter="url(#k)" width="620" height="75" rx="6"/><use fill="#FFF" xlink:href="#l"/><use xlink:href="#l"/><text font-family="Roboto-Regular, Roboto" font-size="32" letter-spacing="-.8" fill="#000"><tspan x="440.5" y="47.5">first</tspan></text><text font-family="Roboto-Regular, Roboto" font-size="32" letter-spacing="-.8" fill="#000"><tspan x="199" y="47.5">Kate</tspan></text><circle fill="#FFF" cx="127" cy="37.5" r="27"/><path d="M139.128 22.5l-11.027.12a4.204 4.204 0 0 0-2.135.608l-5.1 1.333a.925.925 0 0 0-.056.018l-1.742.582v-.002l-.01.005-.2.066a4.126 4.126 0 0 0-1.334.74l-1.5.79-1.03.55-.015-.02-.165.118-.503.27a4.046 4.046 0 0 0-1.154.922l-2.604 1.873a3.858 3.858 0 0 0-1.53 2.645c-.118 1.03.183 2.042.85 2.855l10.573 15.005a.887.887 0 0 0 .04.05c.828.998 2.064 1.502 3.3 1.47a4.16 4.16 0 0 0 2.42-.845l2.932-2.076 3.31-.6 1.688-.305-.01.127 5.342.14h.064c2.215-.057 3.99-2.036 3.966-4.166l-.242-18.296c-.025-2.163-1.88-4.002-4.13-3.978zm-21.043 5.318c.113-.198.255-.376.42-.532l1.234-.65.615-.206a3.786 3.786 0 0 0-.276 2.293l3.232 17.898-5.383-16.897-.01-.03a2.24 2.24 0 0 1 .165-1.875zm5.98-1.232l.21 15.978-2.55-14.12c0-.005-.002-.01-.003-.013-.125-.635.036-1.298.44-1.817.36-.464.888-.78 1.48-.887l.533-.096c-.077.31-.114.63-.11.956zm-7.927 1.952c-.06.558.005 1.128.198 1.67l5.405 16.965-7.525-14.902a2.236 2.236 0 0 1 .125-2.515l1.386-.996.412-.222zm-4.94 6.46a2.235 2.235 0 0 1-.51-1.703c.07-.61.382-1.158.88-1.545l.656-.472c.027.595.194 1.18.497 1.713l7.417 14.685-8.898-12.627a1.22 1.22 0 0 0-.04-.05zm30.625 9.597c.015 1.257-1.037 2.308-2.344 2.34l-11.068.12c-1.33.015-2.422-1.012-2.437-2.29l-.24-18.198c-.005-.51.16-1 .478-1.408a2.428 2.428 0 0 1 1.868-.933l11.066-.12c1.33-.015 2.423 1.012 2.438 2.29l.238 18.198z" fill="#000"/></g><g><path fill="#FFF" filter="url(#m)" d="M0 0h1024v60H0z" transform="translate(0 49)"/><text font-family="Roboto-Medium, Roboto" font-size="28" font-weight="400" letter-spacing="-.7" fill="#000" transform="translate(0 49)"><tspan x="344.417" y="39">Team members in the room:</tspan></text></g><g><path fill="#9C27B0" d="M0 0h1024v50H0z"/><text font-family="ArialMT, Arial" font-size="20" letter-spacing="-.5" fill="#FFF"><tspan x="20" y="32">Scrum Poker</tspan></text><text font-family="MaterialIcons-Regular, Material Icons" font-size="30" fill="#FFF"><tspan x="984" y="40"></tspan></text></g><text font-family="Roboto-Regular, Roboto" font-size="28" letter-spacing="-.7" fill="#000"><tspan x="307" y="731">Wait till Scrum Master starts poker.</tspan></text></g></svg>