<svg width="1024" height="768" viewBox="0 0 1024 768" xmlns="http://www.w3.org/2000/svg"><title>Tablet, Settings</title><defs><filter x="-50%" y="-50%" width="200%" height="200%" filterUnits="objectBoundingBox" id="a"><feOffset dy="2" in="SourceAlpha" result="shadowOffsetOuter1"/><feGaussianBlur stdDeviation="1.5" in="shadowOffsetOuter1" result="shadowBlurOuter1"/><feColorMatrix values="0 0 0 0 0 0 0 0 0 0 0 0 0 0 0 0 0 0 0.35 0" in="shadowBlurOuter1" result="shadowMatrixOuter1"/><feMerge><feMergeNode in="shadowMatrixOuter1"/><feMergeNode in="SourceGraphic"/></feMerge></filter><filter x="-50%" y="-50%" width="200%" height="200%" filterUnits="objectBoundingBox" id="b"><feOffset dy="3" in="SourceAlpha" result="shadowOffsetOuter1"/><feGaussianBlur stdDeviation="3" in="shadowOffsetOuter1" result="shadowBlurOuter1"/><feColorMatrix values="0 0 0 0 0 0 0 0 0 0 0 0 0 0 0 0 0 0 0.35 0" in="shadowBlurOuter1" result="shadowMatrixOuter1"/><feMerge><feMergeNode in="shadowMatrixOuter1"/><feMergeNode in="SourceGraphic"/></feMerge></filter></defs><g fill="none" fill-rule="evenodd"><text font-family="Roboto-Regular, Roboto" font-size="24" letter-spacing="-.6" fill="#000" transform="translate(400 80)"><tspan x="2" y="283">Changing your name or role will lead to reconnecting </tspan> <tspan x="2" y="311">to a poker room.</tspan> <tspan x="2" y="339">You’ll start to participate in poker from next round.</tspan>  <tspan x="2" y="395">Press a button in top menu to save changes.</tspan></text><g transform="translate(434 244)"><rect stroke="#979797" stroke-width="1.5" fill="#FFF" y="4.048" width="22.532" height="22.857" rx="3"/><text font-family="Roboto-Regular, Roboto" font-size="28" letter-spacing="-.7" fill="#000"><tspan x="36.051" y="26">Will you play poker yourself?</tspan></text></g><g transform="translate(644 165)"><rect fill="#03A9F4" filter="url(#a)" width="210" height="59" rx="6"/><text font-family="Roboto-Regular, Roboto" font-size="28" letter-spacing="-.7" fill="#000"><tspan x="20.841" y="38.615">Scrum Master</tspan></text></g><path fill="#FFF" filter="url(#b)" d="M0 0h210v59H0z" transform="translate(434 165)"/><text font-family="Roboto-Regular, Roboto" font-size="28" letter-spacing="-.7" fill="#000" transform="translate(434 165)"><tspan x="15.486" y="38.615">Team Member</tspan></text><g><path d="M400 124h544" stroke="#E6E6E6" stroke-linecap="square"/><text font-family="Roboto-Regular, Roboto" font-size="28" letter-spacing="-.7" fill="#000" transform="translate(400 80)"><tspan x="0" y="26.5">Ann</tspan></text></g><g><path fill="#D8D8D8" d="M0 50h320v64H0z"/><text font-family="Roboto-Regular, Roboto" font-size="24" fill="#000" transform="translate(0 50)"><tspan x="30" y="39">Name and Role</tspan></text><text font-family="Roboto-Regular, Roboto" font-size="24" fill="#000" transform="translate(0 50)"><tspan x="30" y="103">Server Settings</tspan></text><text font-family="Roboto-Regular, Roboto" font-size="24" fill="#000" transform="translate(0 50)"><tspan x="30" y="167">Deck Cards</tspan></text><path d="M31 114h288M31 178h288M319.5 50.5v354.17" stroke="#E6E6E6" stroke-linecap="square"/></g><g><path fill="#9C27B0" d="M0 0h320v50H0z"/><text font-family="ArialMT, Arial" font-size="20" letter-spacing="-.5" fill="#FFF"><tspan x="60" y="32">Settings</tspan></text><text font-family="MaterialIcons-Regular, Material Icons" font-size="30" fill="#FFF"><tspan x="10" y="40"></tspan></text></g><g><path fill="#9C27B0" d="M330 0h694v50H330z"/><text font-family="ArialMT, Arial" font-size="20" letter-spacing="-.5" fill="#FFF" transform="translate(330)"><tspan x="30" y="32">Name and Role</tspan></text></g><text font-family="MaterialIcons-Regular, Material Icons" font-size="30" fill="#FFF"><tspan x="984" y="40"></tspan></text></g></svg>