<svg width="1024" height="768" viewBox="0 0 1024 768" xmlns="http://www.w3.org/2000/svg" xmlns:xlink="http://www.w3.org/1999/xlink"><title>Tablet, Deck Cards</title><defs><filter x="-50%" y="-50%" width="200%" height="200%" filterUnits="objectBoundingBox" id="a"><feOffset dy="2" in="SourceAlpha" result="shadowOffsetOuter1"/><feGaussianBlur stdDeviation="2.5" in="shadowOffsetOuter1" result="shadowBlurOuter1"/><feColorMatrix values="0 0 0 0 0 0 0 0 0 0 0 0 0 0 0 0 0 0 0.35 0" in="shadowBlurOuter1" result="shadowMatrixOuter1"/><feMerge><feMergeNode in="shadowMatrixOuter1"/><feMergeNode in="SourceGraphic"/></feMerge></filter><path id="b" d="M327.94 0h212.055A4.008 4.008 0 0 1 544 4.006v66.988A4.006 4.006 0 0 1 540 75H274l53.94-75z"/><filter x="-50%" y="-50%" width="200%" height="200%" filterUnits="objectBoundingBox" id="c"><feOffset dy="3" in="SourceAlpha" result="shadowOffsetOuter1"/><feGaussianBlur stdDeviation="4" in="shadowOffsetOuter1" result="shadowBlurOuter1"/><feColorMatrix values="0 0 0 0 0 0 0 0 0 0 0 0 0 0 0 0 0 0 0.14 0" in="shadowBlurOuter1" result="shadowMatrixOuter1"/><feMerge><feMergeNode in="shadowMatrixOuter1"/><feMergeNode in="SourceGraphic"/></feMerge></filter><filter x="-50%" y="-50%" width="200%" height="200%" filterUnits="objectBoundingBox" id="d"><feOffset dy="3" in="SourceAlpha" result="shadowOffsetOuter1"/><feGaussianBlur stdDeviation="4" in="shadowOffsetOuter1" result="shadowBlurOuter1"/><feColorMatrix values="0 0 0 0 0 0 0 0 0 0 0 0 0 0 0 0 0 0 0.14 0" in="shadowBlurOuter1" result="shadowMatrixOuter1"/><feMerge><feMergeNode in="shadowMatrixOuter1"/><feMergeNode in="SourceGraphic"/></feMerge></filter><filter x="-50%" y="-50%" width="200%" height="200%" filterUnits="objectBoundingBox" id="e"><feOffset dy="2" in="SourceAlpha" result="shadowOffsetOuter1"/><feGaussianBlur stdDeviation="2.5" in="shadowOffsetOuter1" result="shadowBlurOuter1"/><feColorMatrix values="0 0 0 0 0 0 0 0 0 0 0 0 0 0 0 0 0 0 0.35 0" in="shadowBlurOuter1" result="shadowMatrixOuter1"/><feMerge><feMergeNode in="shadowMatrixOuter1"/><feMergeNode in="SourceGraphic"/></feMerge></filter><path id="f" d="M327.94 0h212.055A4.008 4.008 0 0 1 544 4.006v66.988A4.006 4.006 0 0 1 540 75H274l53.94-75z"/><filter x="-50%" y="-50%" width="200%" height="200%" filterUnits="objectBoundingBox" id="g"><feOffset dy="3" in="SourceAlpha" result="shadowOffsetOuter1"/><feGaussianBlur stdDeviation="4" in="shadowOffsetOuter1" result="shadowBlurOuter1"/><feColorMatrix values="0 0 0 0 0 0 0 0 0 0 0 0 0 0 0 0 0 0 0.14 0" in="shadowBlurOuter1" result="shadowMatrixOuter1"/><feMerge><feMergeNode in="shadowMatrixOuter1"/><feMergeNode in="SourceGraphic"/></feMerge></filter><filter x="-50%" y="-50%" width="200%" height="200%" filterUnits="objectBoundingBox" id="h"><feOffset dy="3" in="SourceAlpha" result="shadowOffsetOuter1"/><feGaussianBlur stdDeviation="4" in="shadowOffsetOuter1" result="shadowBlurOuter1"/><feColorMatrix values="0 0 0 0 0 0 0 0 0 0 0 0 0 0 0 0 0 0 0.14 0" in="shadowBlurOuter1" result="shadowMatrixOuter1"/><feMerge><feMergeNode in="shadowMatrixOuter1"/><feMergeNode in="SourceGraphic"/></feMerge></filter><filter x="-50%" y="-50%" width="200%" height="200%" filterUnits="objectBoundingBox" id="i"><feOffset dy="2" in="SourceAlpha" result="shadowOffsetOuter1"/><feGaussianBlur stdDeviation="2.5" in="shadowOffsetOuter1" result="shadowBlurOuter1"/><feColorMatrix values="0 0 0 0 0 0 0 0 0 0 0 0 0 0 0 0 0 0 0.35 0" in="shadowBlurOuter1" result="shadowMatrixOuter1"/><feMerge><feMergeNode in="shadowMatrixOuter1"/><feMergeNode in="SourceGraphic"/></feMerge></filter><path id="j" d="M327.94 0h212.055A4.008 4.008 0 0 1 544 4.006v66.988A4.006 4.006 0 0 1 540 75H274l53.94-75z"/><filter x="-50%" y="-50%" width="200%" height="200%" filterUnits="objectBoundingBox" id="k"><feOffset dy="2" in="SourceAlpha" result="shadowOffsetOuter1"/><feGaussianBlur stdDeviation="2.5" in="shadowOffsetOuter1" result="shadowBlurOuter1"/><feColorMatrix values="0 0 0 0 0 0 0 0 0 0 0 0 0 0 0 0 0 0 0.35 0" in="shadowBlurOuter1" result="shadowMatrixOuter1"/><feMerge><feMergeNode in="shadowMatrixOuter1"/><feMergeNode in="SourceGraphic"/></feMerge></filter><path id="l" d="M327.94 0h212.055A4.008 4.008 0 0 1 544 4.006v66.988A4.006 4.006 0 0 1 540 75H274l53.94-75z"/><filter x="-50%" y="-50%" width="200%" height="200%" filterUnits="objectBoundingBox" id="m"><feOffset dy="2" in="SourceAlpha" result="shadowOffsetOuter1"/><feGaussianBlur stdDeviation="2.5" in="shadowOffsetOuter1" result="shadowBlurOuter1"/><feColorMatrix values="0 0 0 0 0 0 0 0 0 0 0 0 0 0 0 0 0 0 0.35 0" in="shadowBlurOuter1" result="shadowMatrixOuter1"/><feMerge><feMergeNode in="shadowMatrixOuter1"/><feMergeNode in="SourceGraphic"/></feMerge></filter><path id="n" d="M327.94 0h212.055A4.008 4.008 0 0 1 544 4.006v66.988A4.006 4.006 0 0 1 540 75H274l53.94-75z"/><filter x="-50%" y="-50%" width="200%" height="200%" filterUnits="objectBoundingBox" id="o"><feOffset dy="2" in="SourceAlpha" result="shadowOffsetOuter1"/><feGaussianBlur stdDeviation="2.5" in="shadowOffsetOuter1" result="shadowBlurOuter1"/><feColorMatrix values="0 0 0 0 0 0 0 0 0 0 0 0 0 0 0 0 0 0 0.35 0" in="shadowBlurOuter1" result="shadowMatrixOuter1"/><feMerge><feMergeNode in="shadowMatrixOuter1"/><feMergeNode in="SourceGraphic"/></feMerge></filter><path id="p" d="M327.94 0h212.055A4.008 4.008 0 0 1 544 4.006v66.988A4.006 4.006 0 0 1 540 75H274l53.94-75z"/><filter x="-50%" y="-50%" width="200%" height="200%" filterUnits="objectBoundingBox" id="q"><feOffset dy="2" in="SourceAlpha" result="shadowOffsetOuter1"/><feGaussianBlur stdDeviation="2.5" in="shadowOffsetOuter1" result="shadowBlurOuter1"/><feColorMatrix values="0 0 0 0 0 0 0 0 0 0 0 0 0 0 0 0 0 0 0.35 0" in="shadowBlurOuter1" result="shadowMatrixOuter1"/><feMerge><feMergeNode in="shadowMatrixOuter1"/><feMergeNode in="SourceGraphic"/></feMerge></filter><path id="r" d="M327.94 0h212.055A4.008 4.008 0 0 1 544 4.006v66.988A4.006 4.006 0 0 1 540 75H274l53.94-75z"/><filter x="-50%" y="-50%" width="200%" height="200%" filterUnits="objectBoundingBox" id="s"><feOffset dy="2" in="SourceAlpha" result="shadowOffsetOuter1"/><feGaussianBlur stdDeviation="2.5" in="shadowOffsetOuter1" result="shadowBlurOuter1"/><feColorMatrix values="0 0 0 0 0 0 0 0 0 0 0 0 0 0 0 0 0 0 0.35 0" in="shadowBlurOuter1" result="shadowMatrixOuter1"/><feMerge><feMergeNode in="shadowMatrixOuter1"/><feMergeNode in="SourceGraphic"/></feMerge></filter><path id="t" d="M327.94 0h212.055A4.008 4.008 0 0 1 544 4.006v66.988A4.006 4.006 0 0 1 540 75H274l53.94-75z"/></defs><g fill="none" fill-rule="evenodd"><path fill="#D8D8D8" d="M0 178h320v64H0z"/><path d="M319.5 50.5v354.17" stroke="#E6E6E6" stroke-linecap="square"/><text font-family="Roboto-Regular, Roboto" font-size="24" fill="#000" transform="translate(0 50)"><tspan x="30" y="39">Name and Role</tspan></text><text font-family="Roboto-Regular, Roboto" font-size="24" fill="#000" transform="translate(0 50)"><tspan x="30" y="103">Server Settings</tspan></text><text font-family="Roboto-Regular, Roboto" font-size="24" fill="#000" transform="translate(0 50)"><tspan x="30" y="167">Deck Cards</tspan></text><path d="M31 114h288M31 178h288" stroke="#E6E6E6" stroke-linecap="square"/><g><path fill="#9C27B0" d="M0 0h320v50H0z"/><text font-family="ArialMT, Arial" font-size="20" letter-spacing="-.5" fill="#FFF"><tspan x="60" y="32">Settings</tspan></text><text font-family="MaterialIcons-Regular, Material Icons" font-size="30" fill="#FFF"><tspan x="10" y="40"></tspan></text></g><g><path fill="#9C27B0" d="M330 0h694v50H330z"/><text font-family="ArialMT, Arial" font-size="20" letter-spacing="-.5" fill="#FFF" transform="translate(330)"><tspan x="30" y="32">Deck Cards</tspan></text></g><text font-family="MaterialIcons-Regular, Material Icons" font-size="30" fill="#FFF"><tspan x="984" y="40"></tspan></text><g><g transform="translate(400 689)"><rect fill="#795548" filter="url(#a)" width="544" height="75" rx="6"/><use fill="#FFF" xlink:href="#b"/><use xlink:href="#b"/><g transform="translate(465 22)"><rect fill="#F4F3F3" filter="url(#c)" x="5.619" y="5.818" width="53.381" height="20.364" rx="11.25"/><ellipse fill="#FFF" filter="url(#d)" cx="15.452" cy="16" rx="15.452" ry="16"/></g><circle fill="#FFF" cx="62" cy="37.5" r="27"/><g fill="#010101"><path d="M73.424 28.15c0-1.28-.77-3.08-4.435-4.364-2.367-.83-5.484-1.286-8.778-1.286-3.294 0-6.41.456-8.777 1.286C47.77 25.07 47 26.87 47 28.15c0 5.47.18 9.815 1.05 13.252.85 3.336 2.33 5.89 4.95 8.532 1.64 1.654 4.135 2.53 7.21 2.53 3.078 0 5.57-.877 7.212-2.53 1.996-2.014 3.347-4.067 4.375-6.66.014-.036.046-.116.31-.205.408-.137 1.002-.152 1.415-.152.25 0 .512.006.765.012.25.007.505.014.75.014 1.75 0 3.398-.786 4.638-2.214a7.57 7.57 0 0 0 1.825-4.902c0-1.87-.684-3.56-1.93-4.756-1.17-1.124-2.78-1.744-4.533-1.744-.637 0-1.173.1-1.62.218.006-.444.007-.91.007-1.396zm6.64 7.68a5.978 5.978 0 0 1-1.445 3.868c-.967 1.11-2.238 1.722-3.582 1.722-.47 0-.993-.026-1.516-.026-1.303 0-2.603.16-3.05 1.29-.91 2.292-2.117 4.206-4.04 6.146-1.346 1.356-3.463 2.11-6.22 2.11-2.76 0-4.876-.754-6.22-2.11-4.733-4.773-5.555-9.2-5.555-20.68 0-2.278 5.272-4.125 11.774-4.125 6.504 0 11.776 1.848 11.776 4.126 0 1.158-.01 2.242-.03 3.264.07.01.14.016.21.016.742 0 1.517-.576 2.872-.576 1.396 0 2.663.48 3.568 1.35.94.902 1.457 2.19 1.457 3.625z"/><path d="M71.83 34.86c-.058.956-.453 3.88-.55 4.718.404-.255.967-.323 1.553-.323.672 0 1.373.09 1.896.09.11 0 .215-.004.308-.014 1.65-.175 3.055-1.635 3.055-3.5 0-1.754-1.2-2.887-3.055-2.887-1.536 0-2.652.834-3.21 1.916zm2.9 2.96c-.198 0-.46-.018-.738-.037-.317-.022-.67-.046-1.03-.052.107-.86.215-1.76.27-2.375.263-.374.806-.89 1.806-.89.738 0 1.617.238 1.617 1.364 0 1.124-.895 1.89-1.76 1.984-.028.003-.08.007-.166.007zM68.655 26.95a.35.35 0 0 0-.487.156.392.392 0 0 0 .146.516c.48.274.754.57.754.808 0 .212-.223.508-.773.818-1.33-1.033-4.447-1.758-8.083-1.758s-6.754.725-8.083 1.758c-.552-.31-.774-.606-.774-.818 0-.24.275-.535.756-.81.175-.1.24-.33.146-.515a.35.35 0 0 0-.486-.155c-.753.43-1.135.927-1.135 1.48 0 1.95 4.817 2.97 9.574 2.97 4.76 0 9.576-1.02 9.576-2.97 0-.552-.38-1.05-1.13-1.48z"/></g></g><g transform="translate(400 602)"><rect fill="#2196F3" filter="url(#e)" width="544" height="75" rx="6"/><use fill="#FFF" xlink:href="#f"/><use xlink:href="#f"/><g transform="translate(465 22)"><rect fill="#607D8B" filter="url(#g)" y="5.818" width="53.381" height="20.364" rx="11.25"/><ellipse fill="#FFF" filter="url(#h)" cx="43.548" cy="16" rx="15.452" ry="16"/></g><circle fill="#FFF" cx="62" cy="37.5" r="27"/><text font-family="Roboto-Regular, Roboto" font-size="30" letter-spacing="-.75" fill="#000"><tspan x="54.542" y="47.5">?</tspan></text></g><g transform="translate(400 515)"><rect fill="#F44336" filter="url(#i)" width="544" height="75" rx="6"/><path d="M20 24h3v3h-3v-3zm6 0h3v3h-3v-3zm-6 6h3v3h-3v-3zm6 0h3v3h-3v-3zm-6 6h3v3h-3v-3zm6 0h3v3h-3v-3zm-6 6h3v3h-3v-3zm6 0h3v3h-3v-3zm-6 6h3v3h-3v-3zm6 0h3v3h-3v-3z" fill="#000"/><use fill="#FFF" xlink:href="#j"/><use xlink:href="#j"/><circle fill="#FFF" cx="92" cy="37.5" r="27"/><text font-family="Roboto-Regular, Roboto" font-size="30" letter-spacing="-.75" fill="#000"><tspan x="67.106" y="47.5">100</tspan></text><text font-family="MaterialIcons-Regular, Material Icons" font-size="45" fill="#607D8B"><tspan x="484" y="60"></tspan></text><text font-family="MaterialIcons-Regular, Material Icons" font-size="45" fill="#607D8B"><tspan x="424" y="60"></tspan></text></g><g transform="translate(400 428)"><rect fill="#E6E33A" filter="url(#k)" width="544" height="75" rx="6"/><path d="M20 24h3v3h-3v-3zm6 0h3v3h-3v-3zm-6 6h3v3h-3v-3zm6 0h3v3h-3v-3zm-6 6h3v3h-3v-3zm6 0h3v3h-3v-3zm-6 6h3v3h-3v-3zm6 0h3v3h-3v-3zm-6 6h3v3h-3v-3zm6 0h3v3h-3v-3z" fill="#000"/><use fill="#FFF" xlink:href="#l"/><use xlink:href="#l"/><circle fill="#FFF" cx="92" cy="37.5" r="27"/><text font-family="Roboto-Regular, Roboto" font-size="30" letter-spacing="-.75" fill="#000"><tspan x="83.202" y="47.5">3</tspan></text><text font-family="MaterialIcons-Regular, Material Icons" font-size="45" fill="#607D8B"><tspan x="484" y="60"></tspan></text><text font-family="MaterialIcons-Regular, Material Icons" font-size="45" fill="#607D8B"><tspan x="424" y="60"></tspan></text></g><g transform="translate(400 341)"><rect fill="#CDDC39" filter="url(#m)" width="544" height="75" rx="6"/><path d="M20 24h3v3h-3v-3zm6 0h3v3h-3v-3zm-6 6h3v3h-3v-3zm6 0h3v3h-3v-3zm-6 6h3v3h-3v-3zm6 0h3v3h-3v-3zm-6 6h3v3h-3v-3zm6 0h3v3h-3v-3zm-6 6h3v3h-3v-3zm6 0h3v3h-3v-3z" fill="#000"/><use fill="#FFF" xlink:href="#n"/><use xlink:href="#n"/><circle fill="#FFF" cx="92" cy="37.5" r="27"/><text font-family="Roboto-Regular, Roboto" font-size="30" letter-spacing="-.75" fill="#000"><tspan x="83.202" y="47.5">2</tspan></text><text font-family="MaterialIcons-Regular, Material Icons" font-size="45" fill="#607D8B"><tspan x="484" y="60"></tspan></text><text font-family="MaterialIcons-Regular, Material Icons" font-size="45" fill="#607D8B"><tspan x="424" y="60"></tspan></text></g><g transform="translate(400 254)"><rect fill="#ACCF41" filter="url(#o)" width="544" height="75" rx="6"/><path d="M20 24h3v3h-3v-3zm6 0h3v3h-3v-3zm-6 6h3v3h-3v-3zm6 0h3v3h-3v-3zm-6 6h3v3h-3v-3zm6 0h3v3h-3v-3zm-6 6h3v3h-3v-3zm6 0h3v3h-3v-3zm-6 6h3v3h-3v-3zm6 0h3v3h-3v-3z" fill="#000"/><use fill="#FFF" xlink:href="#p"/><use xlink:href="#p"/><circle fill="#FFF" cx="92" cy="37.5" r="27"/><text font-family="Roboto-Regular, Roboto" font-size="30" letter-spacing="-.75" fill="#000"><tspan x="83.202" y="47.5">1</tspan></text><text font-family="MaterialIcons-Regular, Material Icons" font-size="45" fill="#607D8B"><tspan x="484" y="60"></tspan></text><text font-family="MaterialIcons-Regular, Material Icons" font-size="45" fill="#607D8B"><tspan x="424" y="60"></tspan></text></g><g transform="translate(400 167)"><rect fill="#8BC34A" filter="url(#q)" width="544" height="75" rx="6"/><path d="M20 24h3v3h-3v-3zm6 0h3v3h-3v-3zm-6 6h3v3h-3v-3zm6 0h3v3h-3v-3zm-6 6h3v3h-3v-3zm6 0h3v3h-3v-3zm-6 6h3v3h-3v-3zm6 0h3v3h-3v-3zm-6 6h3v3h-3v-3zm6 0h3v3h-3v-3z" fill="#000"/><use fill="#FFF" xlink:href="#r"/><use xlink:href="#r"/><circle fill="#FFF" cx="92" cy="37.5" r="27"/><text font-family="Roboto-Regular, Roboto" font-size="30" letter-spacing="-.75" fill="#000"><tspan x="69.348" y="47.5">1/2</tspan></text><text font-family="MaterialIcons-Regular, Material Icons" font-size="45" fill="#607D8B"><tspan x="484" y="60"></tspan></text><text font-family="MaterialIcons-Regular, Material Icons" font-size="45" fill="#607D8B"><tspan x="424" y="60"></tspan></text></g><g transform="translate(400 80)"><rect fill="#4CAF50" filter="url(#s)" width="544" height="75" rx="6"/><use fill="#FFF" xlink:href="#t"/><use xlink:href="#t"/><circle fill="#FFF" cx="92" cy="37.5" r="27"/><text font-family="Roboto-Regular, Roboto" font-size="30" letter-spacing="-.75" fill="#000"><tspan x="83.202" y="47.5">0</tspan></text><text font-family="MaterialIcons-Regular, Material Icons" font-size="45" fill="#607D8B"><tspan x="484" y="60"></tspan></text><text font-family="MaterialIcons-Regular, Material Icons" font-size="45" fill="#607D8B"><tspan x="424" y="60"></tspan></text><path d="M20 24h3v3h-3v-3zm6 0h3v3h-3v-3zm-6 6h3v3h-3v-3zm6 0h3v3h-3v-3zm-6 6h3v3h-3v-3zm6 0h3v3h-3v-3zm-6 6h3v3h-3v-3zm6 0h3v3h-3v-3zm-6 6h3v3h-3v-3zm6 0h3v3h-3v-3z" fill="#000"/></g></g></g></svg>